<svg xmlns="http://www.w3.org/2000/svg" xmlns:xlink="http://www.w3.org/1999/xlink" width="156" height="40"><defs><linearGradient id="d" x1="43.162" x2="3.603" y1="-8.763" y2="37.256" gradientTransform="scale(.9628 1.03863)" gradientUnits="userSpaceOnUse"><stop offset="0%" stop-color="#2AD1FF"/><stop offset="100%" stop-color="#8966FF"/></linearGradient><linearGradient id="e" x1="16.395" x2="12.246" y1="35.925" y2="44.4" gradientTransform="scale(1.33857 .74707)" gradientUnits="userSpaceOnUse"><stop offset="0%" stop-color="#2AD1FF"/><stop offset="100%" stop-color="#8966FF"/></linearGradient><linearGradient id="g" x1="27.928" x2="30.856" y1="16.206" y2="-.371" gradientTransform="scale(.97661 1.02395)" gradientUnits="userSpaceOnUse"><stop offset="0%" stop-color="#2AD1FF"/><stop offset="100%" stop-color="#8966FF"/></linearGradient><linearGradient id="i" x1="35.269" x2="26.29" y1="44.01" y2="24.363" gradientTransform="scale(.97663 1.02393)" gradientUnits="userSpaceOnUse"><stop offset="0%" stop-color="#2AD1FF"/><stop offset="100%" stop-color="#8966FF"/></linearGradient><path id="a" d="m10.677 20.595-8.91 8.92C.35 30.928-.275 32.92.112 34.96c.14.74.428 1.45.843 2.078 1.162 1.759 3.037 2.757 5.065 2.757.088 0 .172-.002.262-.007 1.504-.061 2.982-.743 4.159-1.92l12.78-12.781c.17-.168.355-.3.551-.39a3.164 3.164 0 0 1 1.846-.27c.629.1 1.2.429 1.65.88l5.954 5.953c.632.632 1.046 1.467 1.085 2.36a3.415 3.415 0 0 1-1.001 2.582 3.411 3.411 0 0 1-2.43 1.004 3.41 3.41 0 0 1-2.429-1.004l-5.37-5.367a1.293 1.293 0 0 0-1.827 1.827l5.19 5.193c1.203 1.2 2.85 1.89 4.52 1.89 1.44 0 2.815-.509 3.871-1.43 1.964-1.721 2.595-4.51 1.572-6.94-.285-.675-.735-1.323-1.341-1.93l-5.88-5.879c-1.046-1.047-2.357-1.669-3.691-1.752a5.484 5.484 0 0 0-4.258 1.605v.001L8.563 36.09a3.688 3.688 0 0 1-2.582 1.092c-.283 0-.563-.035-.834-.106-1.518-.39-2.54-1.719-2.54-3.303 0-.92.359-1.803.982-2.426l3.18-3.213 6.381-6.382c.015-.014.029-.03.043-.045l-1.345 1.342a3.438 3.438 0 0 0-.833-3.517l-.326-.326a.99.99 0 0 1-.012 1.389"/><path id="b" d="M30.751.005c-1.558.028-3.083.71-4.29 1.919l-5.213 5.21a1.293 1.293 0 1 0 1.829 1.829l5.286-5.285c.691-.691 1.628-1.113 2.606-1.089.356.01.71.07 1.06.186.108.035.214.078.313.127 1.205.603 1.935 1.73 1.968 3.027.025.977-.394 1.913-1.085 2.604l-5.942 5.942c-.534.534-1.238.89-1.993.927a3.213 3.213 0 0 1-1.52-.305 1.898 1.898 0 0 1-.549-.391l.283.282a6.014 6.014 0 0 0 4.253 1.762h.375c.34 0 .665-.135.905-.375l5.918-5.917a6.46 6.46 0 0 0 1.885-4.536 5.844 5.844 0 0 0-1.423-3.855A5.955 5.955 0 0 0 30.869.005h-.118Z"/><path id="c" d="m23.504 24.81-.283.283c.17-.17.354-.302.55-.391a3.214 3.214 0 0 1 1.52-.305c.754.037 1.458.392 1.992.926l5.942 5.942c.69.691 1.11 1.628 1.085 2.604-.033 1.299-.763 2.424-1.968 3.028-.099.05-.205.092-.313.127-.35.115-.704.176-1.06.185-.978.025-1.915-.397-2.606-1.088l-5.286-5.286a1.293 1.293 0 0 0-1.828 0l-.002.001a1.293 1.293 0 0 0 0 1.828l5.214 5.211c1.207 1.21 2.732 1.89 4.29 1.92h.118a5.956 5.956 0 0 0 4.548-2.064 5.845 5.845 0 0 0 1.423-3.854 6.46 6.46 0 0 0-1.885-4.536s-4.106-4.096-5.705-5.68a2.118 2.118 0 0 0-1.493-.612 6.016 6.016 0 0 0-4.253 1.762"/><mask id="f" fill="#fff"><use xlink:href="#a"/></mask><mask id="h" fill="#fff"><use xlink:href="#b"/></mask><mask id="j" fill="#fff"><use xlink:href="#c"/></mask></defs><path fill="#393d42" d="M78.885 14.524c-3.348 0-6.905 2.462-6.905 7.025 0 3.937 2.968 6.905 6.905 6.905 3.827 0 6.826-3.085 6.826-7.024 0-3.872-2.999-6.906-6.826-6.906M70.4 1.713c.872 0 1.579.707 1.579 1.579v11.491c1.55-2.055 4.178-3.297 7.104-3.297 5.555 0 9.744 4.292 9.744 9.984 0 5.714-4.189 10.023-9.744 10.023-2.896 0-5.571-1.277-7.104-3.324v1.347a1.579 1.579 0 0 1-3.158 0V3.292c0-.872.707-1.58 1.579-1.58zm-16.87 9.773c2.92 0 5.55 1.231 7.104 3.27v-1.293a1.579 1.579 0 1 1 3.158 0v16.053a1.579 1.579 0 0 1-3.158 0v-1.32c-1.55 2.055-4.179 3.297-7.104 3.297-5.465 0-9.745-4.403-9.745-10.023 0-5.692 4.19-9.984 9.745-9.984zm64.324.349a8.858 8.858 0 0 1 3.13-.294c2.075.19 4.188 1.2 5.135 3.062.14.274.19.56.164.83-.07.758-.715 1.415-1.594 1.424h-.016c-.94 0-1.258-.742-1.779-1.343-.958-1.105-2.573-1.26-3.936-.947a4.343 4.343 0 0 0-.978.35c-1.078.542-2.058 1.82-1.275 2.967.597.875 1.826 1.253 2.81 1.526.604.167 1.237.307 1.88.42.867.167 1.705.383 2.49.645 1.642.547 2.69 1.577 3.22 2.792 1.297 2.98-.517 7.074-4.33 7.916-.662.146-1.342.243-2.026.283-.06.003-.117.009-.177.009a10.573 10.573 0 0 1-1.127.006c-.009 0-.019 0-.028-.003-2.48-.14-5.085-1.287-6.243-3.584a1.512 1.512 0 0 1-.12-.335c-.21-.885.468-1.785 1.468-1.812h.044c.576 0 1.117.297 1.37.797.364.72 1.048 1.402 2.117 1.773.548.158 1.161.24 1.842.243h.044c.494 0 .997-.048 1.5-.152a4.767 4.767 0 0 0 1.42-.517c.039-.021.073-.043.108-.064l.013-.009c.37-.228.67-.511.902-.836.256-.363.386-.807.389-1.32.003-.512-.114-.938-.351-1.263a3.148 3.148 0 0 0-.946-.84 5.494 5.494 0 0 0-1.349-.556 27.801 27.801 0 0 0-1.563-.378 35.117 35.117 0 0 1-2.66-.666 8.99 8.99 0 0 1-2.12-.916c-.032-.018-.064-.036-.093-.054a4.585 4.585 0 0 1-1.512-1.537c-.373-.623-.56-1.43-.554-2.403.006-.915.225-1.737.652-2.434a5.212 5.212 0 0 1 1.342-1.481c.114-.091.237-.176.36-.256a8.466 8.466 0 0 1 2.377-1.043zm-10.29.05c.874 0 1.582.708 1.582 1.581v9.61c0 4.508-3.667 8.176-8.175 8.176-4.507 0-8.175-3.668-8.175-8.175v-9.611a1.582 1.582 0 0 1 3.163 0v9.61a5.018 5.018 0 0 0 5.012 5.012 5.018 5.018 0 0 0 5.012-5.011v-9.611c0-.873.708-1.581 1.582-1.581zm25.619 0c.872 0 1.579.706 1.579 1.578v16.053a1.579 1.579 0 0 1-3.158 0V13.463c0-.872.707-1.578 1.579-1.578zm6.163.365a1.566 1.566 0 0 1 2.207.196l5.553 6.608 5.554-6.608a1.566 1.566 0 1 1 2.402 2.01l-5.91 7.034 5.91 7.032a1.567 1.567 0 1 1-2.402 2.011l-5.554-6.608-5.553 6.608a1.562 1.562 0 0 1-2.207.196 1.567 1.567 0 0 1-.196-2.207l5.91-7.032-5.91-7.033a1.567 1.567 0 0 1 .196-2.207zM53.73 14.524c-3.805 0-6.786 3.034-6.786 6.906 0 3.939 2.98 7.024 6.786 7.024 3.937 0 6.905-2.968 6.905-6.905 0-4.563-3.557-7.025-6.905-7.025zm79.454-11.323c1.309 0 2.296.919 2.296 2.137 0 1.195-.987 2.096-2.296 2.096-1.244 0-2.256-.94-2.256-2.096 0-1.198.99-2.137 2.256-2.137z" style="fill-rule:evenodd;stroke:none;stroke-width:1"/><path fill="url(#d)" d="M5.992 0c-.08 0-.16.003-.242.007C4.386.08 3.065.595 2.044 1.502a5.98 5.98 0 0 0-2.032 4.91c.092 1.455.77 2.884 1.912 4.024l4.173 4.175 4.592 4.595a.99.99 0 0 1-.012 1.389l-8.91 8.92A5.974 5.974 0 0 0 0 33.773c0 1.986.957 3.825 2.653 4.996a5.92 5.92 0 0 0 3.351 1.025h.032c.082 0 .163-.003.247-.007 1.504-.061 2.982-.743 4.159-1.92l12.78-12.781c.17-.168.355-.3.551-.39a3.164 3.164 0 0 1 1.846-.27c.629.1 1.2.429 1.65.88l5.954 5.953c.632.632 1.046 1.467 1.085 2.36a3.415 3.415 0 0 1-1.001 2.582 3.411 3.411 0 0 1-2.43 1.004 3.41 3.41 0 0 1-2.429-1.004l-5.37-5.367a1.293 1.293 0 0 0-1.827 1.827l5.19 5.193c1.203 1.2 2.85 1.89 4.52 1.89 1.44 0 2.815-.509 3.871-1.43 1.964-1.721 2.595-4.51 1.572-6.94-.285-.675-.735-1.323-1.341-1.93l-5.88-5.879c-1.046-1.047-2.357-1.669-3.691-1.752a5.484 5.484 0 0 0-4.258 1.605v.001L8.563 36.09a3.688 3.688 0 0 1-2.582 1.092c-.283 0-.563-.035-.834-.106-1.518-.39-2.54-1.719-2.54-3.303 0-.92.359-1.803.982-2.426l3.18-3.213 6.381-6.382c.015-.014.029-.03.043-.045a2.616 2.616 0 0 0-.038-3.644l-5.12-5.144-3.367-3.383-1.075-1.085a3.453 3.453 0 0 1-.985-2.43c0-1.586 1.02-2.914 2.539-3.305.27-.069.551-.104.834-.104.948 0 1.889.399 2.582 1.092l12.839 12.838c.464.465.99.814 1.565 1.035.71.276 1.44.415 2.169.415a5.48 5.48 0 0 0 3.486-1.242h.003c.141-.118.28-.243.413-.375l5.917-5.917a6.461 6.461 0 0 0 1.885-4.536 5.844 5.844 0 0 0-1.423-3.855A5.955 5.955 0 0 0 30.869.005h-.118c-1.558.028-3.083.71-4.29 1.919l-5.213 5.21a1.293 1.293 0 1 0 1.829 1.829l5.286-5.285c.691-.691 1.628-1.113 2.606-1.089.355.01.71.07 1.06.186.108.035.214.078.313.127 1.205.603 1.935 1.73 1.968 3.027.025.977-.394 1.914-1.085 2.604L27.28 14.48c-.533.532-1.234.884-1.985.923a3.217 3.217 0 0 1-1.524-.305 1.898 1.898 0 0 1-.55-.391l-7.928-7.928-4.851-4.852C9.265.75 7.789.068 6.283.007A4.98 4.98 0 0 0 6.044 0z" style="fill:url(#d);fill-rule:evenodd;stroke:none;stroke-width:1"/><path fill="url(#e)" d="m10.677 20.595-8.91 8.92C.35 30.928-.275 32.92.112 34.96c.14.74.428 1.45.843 2.078 1.162 1.759 3.037 2.757 5.065 2.757.088 0 .172-.002.262-.007 1.504-.061 2.982-.743 4.159-1.92l12.78-12.781c.17-.168.355-.3.551-.39a3.164 3.164 0 0 1 1.846-.27c.629.1 1.2.429 1.65.88l5.954 5.953c.632.632 1.046 1.467 1.085 2.36a3.415 3.415 0 0 1-1.001 2.582 3.411 3.411 0 0 1-2.43 1.004 3.41 3.41 0 0 1-2.429-1.004l-5.37-5.367a1.293 1.293 0 0 0-1.827 1.827l5.19 5.193c1.203 1.2 2.85 1.89 4.52 1.89 1.44 0 2.815-.509 3.871-1.43 1.964-1.721 2.595-4.51 1.572-6.94-.285-.675-.735-1.323-1.341-1.93l-5.88-5.879c-1.046-1.047-2.357-1.669-3.691-1.752a5.484 5.484 0 0 0-4.258 1.605v.001L8.563 36.09a3.688 3.688 0 0 1-2.582 1.092c-.283 0-.563-.035-.834-.106-1.518-.39-2.54-1.719-2.54-3.303 0-.92.359-1.803.982-2.426l3.18-3.213 6.381-6.382c.015-.014.029-.03.043-.045l-1.345 1.342a3.438 3.438 0 0 0-.833-3.517l-.326-.326a.99.99 0 0 1-.012 1.389" mask="url(#f)" style="fill:url(#e);fill-rule:evenodd;stroke:none;stroke-width:1"/><path fill="url(#g)" d="M30.751.005c-1.558.028-3.083.71-4.29 1.919l-5.213 5.21a1.293 1.293 0 1 0 1.829 1.829l5.286-5.285c.691-.691 1.628-1.113 2.606-1.089.356.01.71.07 1.06.186.108.035.214.078.313.127 1.205.603 1.935 1.73 1.968 3.027.025.977-.394 1.913-1.085 2.604l-5.942 5.942c-.534.534-1.238.89-1.993.927a3.213 3.213 0 0 1-1.52-.305 1.898 1.898 0 0 1-.549-.391l.283.282a6.014 6.014 0 0 0 4.253 1.762h.375c.34 0 .665-.135.905-.375l5.918-5.917a6.461 6.461 0 0 0 1.885-4.536 5.844 5.844 0 0 0-1.423-3.855A5.955 5.955 0 0 0 30.869.005z" mask="url(#h)" style="fill:url(#g);fill-rule:evenodd;stroke:none;stroke-width:1"/><path fill="url(#i)" d="m23.504 24.81-.283.283c.17-.17.354-.302.55-.391a3.214 3.214 0 0 1 1.52-.305c.754.037 1.458.392 1.992.926l5.942 5.942c.69.691 1.11 1.628 1.085 2.604-.033 1.299-.763 2.424-1.968 3.028-.099.05-.205.092-.313.127-.35.115-.704.176-1.06.185-.978.025-1.915-.397-2.606-1.088l-5.286-5.286a1.293 1.293 0 0 0-1.828 0l-.002.001a1.293 1.293 0 0 0 0 1.828l5.214 5.21c1.207 1.21 2.732 1.892 4.29 1.92h.118a5.956 5.956 0 0 0 4.548-2.063 5.845 5.845 0 0 0 1.423-3.854 6.46 6.46 0 0 0-1.885-4.536s-4.106-4.096-5.705-5.68a2.118 2.118 0 0 0-1.493-.612 6.016 6.016 0 0 0-4.253 1.762" mask="url(#j)" style="fill:url(#i);fill-rule:evenodd;stroke:none;stroke-width:1"/></svg>