<svg xmlns="http://www.w3.org/2000/svg" width="66.89" height="40"><path d="M18.85 14.527c0 .823.09 1.49.245 1.98.178.49.4 1.024.712 1.602a.968.968 0 0 1 .156.512c0 .222-.134.445-.423.667l-1.402.934c-.2.134-.4.2-.578.2-.223 0-.445-.11-.667-.31a6.882 6.882 0 0 1-.801-1.046c-.223-.379-.445-.801-.69-1.313-1.735 2.047-3.915 3.07-6.54 3.07-1.87 0-3.36-.534-4.45-1.602-1.09-1.068-1.646-2.491-1.646-4.271 0-1.891.667-3.426 2.024-4.583s3.16-1.735 5.45-1.735c.757 0 1.536.067 2.359.178.823.111 1.668.289 2.558.49V7.674c0-1.69-.356-2.87-1.045-3.56-.712-.689-1.914-1.023-3.627-1.023-.778 0-1.58.09-2.402.29-.823.2-1.624.444-2.403.756a6.383 6.383 0 0 1-.779.29 1.365 1.365 0 0 1-.356.066c-.311 0-.467-.223-.467-.69v-1.09c0-.356.045-.623.156-.779.111-.155.311-.311.623-.467.779-.4 1.713-.734 2.803-1C8.75.177 9.907.043 11.13.043c2.648 0 4.583.601 5.83 1.802 1.223 1.202 1.846 3.026 1.846 5.473v7.208ZM9.818 17.91c.734 0 1.49-.134 2.291-.4.801-.268 1.513-.757 2.114-1.425.356-.422.623-.89.756-1.423.134-.534.223-1.18.223-1.936v-.934a18.579 18.579 0 0 0-2.047-.378 16.763 16.763 0 0 0-2.091-.134c-1.49 0-2.58.29-3.315.89-.734.6-1.09 1.446-1.09 2.558 0 1.046.267 1.825.823 2.359.534.556 1.313.823 2.336.823zm17.864 2.402c-.4 0-.667-.066-.845-.222-.178-.134-.334-.445-.467-.868L21.142 2.024c-.134-.444-.2-.734-.2-.89 0-.355.177-.556.533-.556h2.18c.423 0 .712.067.868.223.178.133.312.445.445.868l3.738 14.727 3.47-14.727c.111-.445.245-.735.423-.868.178-.134.49-.223.89-.223h1.78c.422 0 .711.067.89.223.177.133.333.445.422.868l3.515 14.905 3.849-14.905c.133-.445.289-.735.445-.868.178-.134.467-.223.867-.223h2.07c.355 0 .555.178.555.557 0 .11-.022.222-.044.356a3.165 3.165 0 0 1-.156.556l-5.361 17.197c-.134.444-.29.734-.468.867-.177.134-.467.223-.845.223h-1.913c-.423 0-.712-.067-.89-.223-.178-.156-.334-.445-.423-.89L34.334 4.872 30.908 19.2c-.111.445-.245.734-.423.89-.178.156-.49.222-.89.222zm28.587.601c-1.156 0-2.313-.133-3.426-.4-1.112-.267-1.98-.557-2.558-.89-.356-.2-.6-.423-.69-.623a1.57 1.57 0 0 1-.133-.623V17.24c0-.467.178-.69.512-.69.133 0 .267.023.4.067.134.045.334.134.556.223.757.334 1.58.6 2.447.779.89.177 1.758.266 2.648.266 1.401 0 2.491-.244 3.248-.734.756-.49 1.157-1.201 1.157-2.113 0-.623-.2-1.135-.601-1.557-.4-.423-1.157-.801-2.247-1.157l-3.226-1.001c-1.624-.512-2.825-1.268-3.56-2.27-.733-.978-1.112-2.068-1.112-3.225 0-.935.2-1.758.601-2.47a5.72 5.72 0 0 1 1.602-1.824c.667-.512 1.424-.89 2.314-1.157C55.09.111 56.025 0 57.004 0c.489 0 1 .022 1.49.089.512.067.979.156 1.446.245.445.11.868.222 1.268.356.4.133.712.267.935.4.311.178.534.356.667.556.134.178.2.423.2.734v1.046c0 .467-.178.712-.511.712-.178 0-.468-.09-.846-.267-1.268-.578-2.692-.868-4.271-.868-1.268 0-2.27.2-2.959.623-.69.423-1.046 1.068-1.046 1.98a2.1 2.1 0 0 0 .668 1.58c.445.422 1.268.845 2.447 1.223L59.65 9.41c1.602.512 2.759 1.224 3.448 2.136.69.912 1.024 1.958 1.024 3.115 0 .956-.2 1.824-.579 2.58A5.983 5.983 0 0 1 61.92 19.2c-.69.556-1.513.957-2.47 1.246a10.579 10.579 0 0 1-3.18.467M60.474 31.724C53.154 37.13 42.521 40 33.377 40 20.563 40 9.017 35.26.297 27.386c-.69-.623-.067-1.468.756-.979 9.432 5.473 21.068 8.788 33.103 8.788 8.12 0 17.041-1.691 25.25-5.162 1.224-.556 2.27.801 1.068 1.691zm3.048-3.47c-.934-1.202-6.185-.579-8.565-.29-.712.09-.823-.534-.178-1 4.182-2.937 11.057-2.092 11.857-1.113.801 1.001-.222 7.875-4.137 11.168-.601.511-1.18.245-.913-.423.89-2.202 2.87-7.163 1.936-8.342" style="fill:#fff;fill-opacity:1;fill-rule:nonzero;stroke:none;stroke-width:.0222469"/></svg>