<svg xmlns="http://www.w3.org/2000/svg" xml:space="preserve" width="120" height="40"><path d="M38.186 35.401c-1.169 0-2.164-.178-2.985-.533-.822-.356-1.486-.847-1.994-1.474a5.896 5.896 0 0 1-1.105-2.198 10.232 10.232 0 0 1-.343-2.706V17.413h1.728v10.849c0 .965.114 1.8.343 2.503.229.703.546 1.283.953 1.74.406.457.898.796 1.474 1.016.576.221 1.22.33 1.931.33.711 0 1.355-.11 1.931-.33a3.725 3.725 0 0 0 1.474-1.016c.407-.457.724-1.037.953-1.74.229-.703.343-1.537.343-2.503V17.413h1.728V28.49c0 .966-.114 1.867-.343 2.706a5.926 5.926 0 0 1-1.105 2.198c-.508.627-1.173 1.118-1.994 1.474-.822.356-1.817.533-2.985.533zM50.061 22.673c.288-.22.749-.453 1.385-.699.635-.245 1.385-.368 2.248-.368.948 0 1.791.169 2.528.508a5.25 5.25 0 0 1 1.867 1.423c.508.61.893 1.334 1.156 2.172.262.838.394 1.757.394 2.756 0 1.067-.157 2.024-.47 2.871-.314.847-.754 1.567-1.321 2.159a5.68 5.68 0 0 1-2.033 1.359c-.788.313-1.664.47-2.63.47-1.169 0-2.134-.076-2.896-.229a14.667 14.667 0 0 1-1.88-.483V15.608l1.651-.305v7.368zm0 10.798c.254.085.631.165 1.131.241.499.076 1.156.114 1.969.114 1.423 0 2.566-.461 3.43-1.385.864-.923 1.296-2.248 1.296-3.976 0-.728-.076-1.418-.229-2.071a4.834 4.834 0 0 0-.737-1.702 3.69 3.69 0 0 0-1.334-1.156c-.551-.288-1.232-.432-2.045-.432-.39 0-.762.038-1.118.114a6.51 6.51 0 0 0-.991.292 5.497 5.497 0 0 0-1.372.762v9.197zM72.696 34.563c-.491.136-1.152.288-1.982.457-.83.169-1.846.254-3.049.254-.983 0-1.804-.144-2.464-.432a3.997 3.997 0 0 1-1.601-1.22c-.406-.525-.699-1.16-.876-1.905a10.61 10.61 0 0 1-.267-2.464v-7.368h1.651v6.834c0 .932.068 1.719.203 2.363.135.644.356 1.165.661 1.562.305.398.699.686 1.181.864.483.178 1.071.267 1.766.267.779 0 1.456-.042 2.033-.127.576-.085.94-.161 1.092-.229V21.884h1.651v12.678zM76.338 22.343a31.555 31.555 0 0 1 1.982-.457c.83-.169 1.846-.254 3.049-.254.999 0 1.833.144 2.503.432.669.288 1.202.699 1.601 1.232.398.534.682 1.173.851 1.918.169.746.254 1.567.254 2.464v7.342h-1.651v-6.809c0-.931-.064-1.719-.191-2.363-.127-.644-.339-1.169-.635-1.575a2.472 2.472 0 0 0-1.169-.877c-.483-.178-1.088-.267-1.817-.267-.779 0-1.453.043-2.02.127-.568.085-.936.161-1.105.229v11.534h-1.651V22.341ZM91.661 21.885h5.234v1.397h-5.234v6.987c0 .746.063 1.351.191 1.817.127.466.309.826.546 1.08.237.254.525.424.864.508.339.085.711.127 1.118.127.694 0 1.253-.08 1.677-.241.423-.161.753-.309.991-.445l.407 1.372c-.237.152-.652.326-1.245.521a6.15 6.15 0 0 1-1.931.292c-.813 0-1.495-.106-2.045-.318a2.96 2.96 0 0 1-1.321-.965c-.33-.431-.563-.969-.699-1.613s-.203-1.406-.203-2.287V18.023l1.651-.305v4.167zM109.44 34.563c-.491.136-1.152.288-1.982.457-.83.169-1.846.254-3.049.254-.983 0-1.804-.144-2.464-.432a3.997 3.997 0 0 1-1.601-1.22c-.406-.525-.699-1.16-.876-1.905a10.61 10.61 0 0 1-.267-2.464v-7.368h1.651v6.834c0 .932.068 1.719.203 2.363.135.644.356 1.165.661 1.562.305.398.699.686 1.181.864.483.178 1.071.267 1.766.267.779 0 1.456-.042 2.033-.127.576-.085.94-.161 1.092-.229V21.884h1.651v12.678zM34.666 13.123c-.432 0-.834-.078-1.205-.232a2.74 2.74 0 0 1-.968-.678 3.215 3.215 0 0 1-.648-1.098c-.158-.436-.237-.934-.237-1.495s.085-1.06.256-1.495c.171-.436.398-.802.682-1.099.284-.297.613-.521.987-.673a3.083 3.083 0 0 1 1.171-.227c.252 0 .481.016.687.048a3.836 3.836 0 0 1 .939.266c.11.048.194.092.252.131l-.213.571a3.829 3.829 0 0 0-.615-.286c-.248-.094-.556-.14-.924-.14-.419 0-.786.071-1.098.213a2.171 2.171 0 0 0-.789.6 2.591 2.591 0 0 0-.479.92c-.106.355-.16.748-.16 1.181 0 .433.053.847.16 1.205.106.358.263.663.469.915.206.252.46.445.76.581.3.136.644.203 1.031.203.426 0 .782-.04 1.069-.121.287-.08.505-.163.653-.247l.184.561a1.15 1.15 0 0 1-.232.111 4.317 4.317 0 0 1-.997.242 5.645 5.645 0 0 1-.736.044zM39.144 7.858c.329 0 .608.047.837.14.229.094.415.223.557.387.142.164.245.36.31.586.064.226.097.471.097.736v3.155c-.065.019-.158.04-.281.063-.123.023-.265.047-.426.072a7.46 7.46 0 0 1-1.142.087c-.265 0-.508-.029-.731-.087a1.613 1.613 0 0 1-.581-.276 1.291 1.291 0 0 1-.387-.484 1.665 1.665 0 0 1-.14-.721c0-.284.052-.503.155-.697.103-.194.248-.353.436-.479a1.95 1.95 0 0 1 .668-.276 3.84 3.84 0 0 1 1.127-.072 4.149 4.149 0 0 1 .532.087.685.685 0 0 1 .14.044v-.31c0-.174-.013-.344-.039-.508a1.117 1.117 0 0 0-.169-.445.947.947 0 0 0-.368-.32c-.158-.08-.366-.121-.624-.121-.368 0-.642.026-.823.077a5.45 5.45 0 0 0-.397.126l-.087-.552c.11-.052.279-.1.508-.145a4.36 4.36 0 0 1 .828-.068zm.058 4.665c.245 0 .46-.008.644-.024s.34-.037.469-.063v-1.762a1.993 1.993 0 0 0-.339-.102 3.037 3.037 0 0 0-.639-.053c-.155 0-.316.011-.484.034a1.412 1.412 0 0 0-.465.145.958.958 0 0 0-.348.305c-.09.129-.135.3-.135.513 0 .187.031.345.092.474a.767.767 0 0 0 .261.31c.113.078.248.134.406.17.158.036.337.053.537.053zM42.303 8.148c.187-.052.439-.11.755-.174a5.953 5.953 0 0 1 1.161-.097c.381 0 .698.055.953.164.255.11.458.266.61.47a1.9 1.9 0 0 1 .324.731c.064.284.097.597.097.939v2.797h-.629v-2.594c0-.355-.024-.655-.073-.9a1.496 1.496 0 0 0-.242-.6.94.94 0 0 0-.445-.334 2.017 2.017 0 0 0-.692-.102c-.297 0-.553.016-.769.048a2.405 2.405 0 0 0-.421.087v4.394h-.629v-4.83zM51.85 10.481c0 .394-.057.752-.169 1.074a2.4 2.4 0 0 1-.474.823 2.163 2.163 0 0 1-.721.528 2.196 2.196 0 0 1-.919.189c-.335 0-.642-.063-.919-.189a2.163 2.163 0 0 1-.721-.528 2.4 2.4 0 0 1-.474-.823 3.235 3.235 0 0 1-.169-1.074c0-.393.056-.752.169-1.074.113-.323.271-.598.474-.828a2.12 2.12 0 0 1 .721-.532c.277-.126.584-.189.919-.189a2.134 2.134 0 0 1 1.64.721c.203.229.361.505.474.828.113.323.169.681.169 1.074zm-.668 0c0-.626-.145-1.124-.436-1.495-.29-.371-.684-.556-1.181-.556s-.89.186-1.181.556c-.29.371-.436.87-.436 1.495 0 .625.145 1.123.436 1.491.29.368.684.552 1.181.552s.89-.184 1.181-.552c.29-.368.436-.865.436-1.491zM52.983 8.148c.187-.052.439-.11.755-.174a5.953 5.953 0 0 1 1.161-.097c.381 0 .698.055.953.164.255.11.458.266.61.47a1.9 1.9 0 0 1 .324.731c.064.284.097.597.097.939v2.797h-.629v-2.594c0-.355-.024-.655-.073-.9a1.496 1.496 0 0 0-.242-.6.94.94 0 0 0-.445-.334 2.017 2.017 0 0 0-.692-.102c-.297 0-.553.016-.769.048a2.405 2.405 0 0 0-.421.087v4.394h-.629v-4.83zM58.991 6.464a.469.469 0 0 1-.135.353.457.457 0 0 1-.329.131.457.457 0 0 1-.329-.131.469.469 0 0 1-.135-.353c0-.148.045-.266.135-.353.09-.087.2-.131.329-.131s.239.044.329.131c.09.087.135.205.135.353zm-.145 6.514h-.629V7.974h.629zM62.321 13.085c-.387 0-.729-.061-1.026-.184a1.906 1.906 0 0 1-.74-.528 2.347 2.347 0 0 1-.45-.823 3.44 3.44 0 0 1-.155-1.06c0-.387.053-.752.16-1.074.107-.322.26-.6.46-.832.2-.232.442-.411.726-.537.284-.126.603-.189.958-.189.271 0 .524.023.76.068.235.045.418.103.547.174l-.165.542a2.066 2.066 0 0 0-.436-.155 2.866 2.866 0 0 0-.648-.058c-.555 0-.976.179-1.263.537-.287.358-.431.866-.431 1.524 0 .297.032.57.097.818.064.248.169.461.315.639.145.178.332.316.561.416.229.1.508.15.837.15.271 0 .498-.031.682-.092.184-.061.318-.114.402-.16l.136.542a2.33 2.33 0 0 1-.547.189 3.252 3.252 0 0 1-.779.092zM66.108 7.858c.329 0 .608.047.837.14.229.094.414.223.556.387.142.164.245.36.31.586.064.226.097.471.097.736v3.155c-.065.019-.158.04-.281.063-.123.023-.265.047-.426.072a7.46 7.46 0 0 1-1.142.087c-.265 0-.508-.029-.731-.087a1.613 1.613 0 0 1-.581-.276 1.291 1.291 0 0 1-.387-.484 1.665 1.665 0 0 1-.14-.721c0-.284.052-.503.155-.697.103-.194.248-.353.436-.479a1.95 1.95 0 0 1 .668-.276 3.84 3.84 0 0 1 1.128-.072 4.149 4.149 0 0 1 .532.087.707.707 0 0 1 .14.044v-.31c0-.174-.013-.344-.039-.508a1.117 1.117 0 0 0-.169-.445.947.947 0 0 0-.368-.32c-.158-.08-.366-.121-.624-.121-.368 0-.642.026-.823.077a5.45 5.45 0 0 0-.397.126l-.087-.552c.11-.052.279-.1.508-.145a4.36 4.36 0 0 1 .828-.068zm.058 4.665c.245 0 .46-.008.644-.024s.34-.037.469-.063v-1.762a1.993 1.993 0 0 0-.339-.102 3.037 3.037 0 0 0-.639-.053c-.155 0-.316.011-.484.034a1.412 1.412 0 0 0-.465.145.958.958 0 0 0-.348.305c-.09.129-.135.3-.135.513 0 .187.03.345.092.474a.767.767 0 0 0 .261.31c.113.078.248.134.407.17.158.036.337.053.537.053zM70.523 13.065a2.132 2.132 0 0 1-.557-.082.983.983 0 0 1-.397-.223.951.951 0 0 1-.242-.387 1.832 1.832 0 0 1-.082-.595V5.584l.629-.116v6.291c0 .155.015.279.044.373a.505.505 0 0 0 .131.223.531.531 0 0 0 .227.121c.093.026.205.048.334.068l-.087.523z"/><g transform="matrix(.1 0 0 .1 0 0)"><path d="M0 0h254.06v400H0z" class="cls-2" style="fill:#e95420"/><path d="M30.25 169.38h193.57v193.57H30.25z" class="cls-1" style="fill:none"/><circle cx="58.09" cy="255.92" r="26.3" class="cls-3" style="fill:#fff"/><circle cx="167.63" cy="198.25" r="26.3" class="cls-3" style="fill:#fff"/><path d="M117.41 323.62c-18.95-4.06-34.78-16.16-43.68-33.32a37.859 37.859 0 0 1-22.49 2.76c10.77 26.45 33.61 45.66 61.65 51.67a86.423 86.423 0 0 0 18.68 1.92 37.647 37.647 0 0 1-7.7-21.99 63.26 63.26 0 0 1-6.45-1.05z" class="cls-3" style="fill:#fff"/><circle cx="161.71" cy="323.76" r="26.3" class="cls-3" style="fill:#fff"/><path d="M198.31 314.1a86.185 86.185 0 0 0 16.71-35.45c4.84-22.59.32-46.29-12.4-65.51a37.888 37.888 0 0 1-14.79 17.32 64.349 64.349 0 0 1 6.08 43.67 64.263 64.263 0 0 1-8.18 20.38 37.756 37.756 0 0 1 12.59 19.6zM56.06 218.2c.67-.04 1.34-.05 2-.05 2.66 0 5.31.28 7.94.85 4.29.92 8.32 2.54 12.01 4.84 11.84-17.03 30.95-27.25 51.65-27.63.11-1.99.38-3.97.79-5.92 1.21-5.63 3.67-10.9 7.19-15.41-33.08-2.62-65.22 14.45-81.59 43.33z" class="cls-3" style="fill:#fff"/></g></svg>