<svg xmlns="http://www.w3.org/2000/svg" width="138" height="40"><path d="M16.982 0C7.603 0 0 7.675 0 17.143 0 26.61 16.982 40 16.982 40s16.985-13.39 16.985-22.857C33.967 7.675 26.362 0 16.982 0zm0 6.121c5.718 0 10.354 4.68 10.354 10.451 0 5.771-4.636 10.45-10.354 10.45-5.717 0-10.351-4.678-10.351-10.45 0-5.772 4.634-10.45 10.351-10.45zm37.077 4.463c-5.833 0-10.245 3.892-10.245 9.66 0 5.74 4.412 9.66 10.245 9.66 4.884 0 7.366-2.969 8.455-5.46l-4.856-2.24c-.474 1.455-1.925 2.716-3.6 2.716-2.707 0-4.52-2.072-4.52-4.676s1.813-4.678 4.52-4.678c1.675 0 3.126 1.262 3.6 2.717l4.856-2.267c-1.117-2.576-3.571-5.432-8.455-5.432zm10.212.307v18.677h8.344c5.833 0 10.188-3.39 10.188-9.353 0-5.964-4.354-9.324-10.215-9.324H64.27zm20.541 0v18.677h5.637v-9.464l6.865 9.464h5.415V10.891h-5.637v8.85l-6.477-8.85h-5.802zm19.926 0v4.93h8.735l-5.889 13.747 6.168-.002 6.195-14.755v-3.92h-15.209zm16.114 0v4.93h8.736l-5.889 13.747 6.166-.002 6.197-14.755v-3.92h-15.21zm-50.944 4.927h2.707c3.014 0 4.465 1.877 4.465 4.397 0 2.352-1.673 4.424-4.492 4.424h-2.68v-8.82z" style="stroke-width:2.24034;fill:#fff"/><path fill="#04151f" d="M16.983 11.857c-2.58 0-4.67 2.111-4.67 4.715 0 2.603 2.09 4.714 4.67 4.714s4.67-2.11 4.67-4.714c0-2.604-2.09-4.715-4.67-4.715" style="stroke-width:2.24034;fill:#fff"/></svg>