<svg xmlns="http://www.w3.org/2000/svg" width="91" height="40"><path d="M-561.333 293.333C-468.918 274.27-367.49 311.39-336 408h2.667c5.358-11.395 18.662-16.848 30.666-17.59 29.88-1.846 60.687.257 90.667.257 0 6.858 3.554 28.788-2.138 33.296-4.127 3.268-14.22 1.37-19.195 1.37-19.727 0-70.327-10.229-71.388 18.667-.728 19.819 12.58 21.333 28.721 21.333 20.487 0 45.537-2.605 61.193 13.454 25.743 26.406 17.159 86.03-17.193 100.507-10.477 4.415-24.831 2.04-36 2.04h-73.333v-34.667H-280c8.345 0 20.168 2.115 27.98-1.144 13.515-5.64 16.138-32.022 3.773-40.07-26.172-17.036-64.437 10.19-86.702-20.14-9.665-13.166-11.028-30.893-10.332-46.646.33-7.476 4.518-15.62 1.25-22.786C-382.332 331.918-475.723 302.614-560 320c-23.702-40.608-44.324-76.677-90.667-95.396-95.37-38.524-206.25 36.567-210.666 139.396h-1.334c0-23.65 1.162-50.434 12-72-59.321-18.811-129.598 6.932-172 49.333-13.462 13.463-28.798 30.805-34.778 49.334-3.354 10.388-1.222 23.832-1.222 34.666H-1112c-8.165 0-17.992-1.487-25.28 2.972-22.627 13.842-13.388 64.035-13.387 86.362.001 10.173.476 20.587 9.391 27.32 7.587 5.73 17.683 4.68 26.61 4.68h56v34.666c-31.479 0-77.956 8.756-105.334-9.473-10.154-6.76-18.417-17.722-22.546-29.193-4.52-12.557-2.787-26.872-2.787-40 0-31.556-7.997-73.282 17.353-97.21 19.627-18.525 45.807-14.79 70.647-14.79 8.206 0 25.482 3.144 32.195-2.466 7.858-6.567 10.833-25.713 16.105-34.868 13.35-23.18 30.888-44.044 53.033-59.322 31.185-21.514 68.672-34.008 106.667-34.011 11.743 0 23.07.821 34.666 2.775 4.983.84 12.223 3.929 17.195 2.687 7.127-1.78 14.036-17.22 18.545-22.795 12.023-14.869 27.488-27.707 44.26-36.918 65.146-35.777 145.31-18.2 191.467 39.584 10.776 13.49 22.875 30.627 25.867 48m-442.667 288h-33.333V390.667c6.378 0 28.06-3.437 31.963 1.876 2.544 3.465 1.37 10.087 1.37 14.124v174.666m313.333 0V390.667c25-3.568 53.295 0 78.667 0 16.437 0 32.311-1.505 46.667 8.053 10.617 7.07 18.235 17.264 22.546 29.28 5.104 14.225 4.12 29.16 4.12 44 0 31.561 7.637 74.004-20.005 96.71-16.33 13.415-34.752 12.623-54.661 12.623h-77.334m325.334-190.666V504c0 17.082 3.295 38.13-1.238 54.667-6.383 23.285-43.944 32.04-62.756 17.923-13.124-9.85-15.283-31.004-19.168-45.923-9.033-34.695-17.75-69.91-28.838-104h-1.334L-480 480v101.333h-38.667v-112c0-18.112-3.211-39.774 1.546-57.333 6.739-24.878 51.219-30.555 67.488-11.946 7.3 8.348 8.387 21.608 11.354 31.946 6.982 24.324 13.804 48.824 20.106 73.333 2.682 10.43 4.385 32.969 14.173 38.667V390.667h38.667m-284.53 36.037c-3.136 2.485-2.135 8.474-2.137 11.963v84c0 5.95-1.78 15.478.99 20.91 2.496 4.896 11.854 3.09 16.343 3.09 14.171 0 34.64 3.896 46.547-5.252 19.4-14.906 10.787-58.184 10.787-80.082 0-10.026.147-18.655-6.951-26.613-10.33-11.582-24.316-9.387-38.383-9.387-6.529 0-21.89-2.831-27.195 1.37m-300.805 16.365c9.505-1.4 19.74-.401 29.334-.401 22.453 0 50.731-4.965 65.817 16 9.163 12.736 7.516 27.854 7.516 42.666 0 29.584 5.25 73.34-33.333 79.415-9.957 1.568-20.608.585-30.667.585-22.248 0-49.624 4.92-64.266-16-8.965-12.807-7.734-29.19-7.734-44 0-29.258-6.142-72.447 33.333-78.265m153.334-.401v66.666c0 8.63-2.29 21.186.99 29.276 6.218 15.345 41.367 14.712 50.02 2.477 4.792-6.775 2.323-19.841 2.323-27.753v-70.666h32v82.666c0 10.825 2.73 26.087-2.251 36-4.73 9.413-14.875 14.024-24.416 17.074-23.943 7.655-72.62 9.476-87.695-15.76-5.777-9.67-2.971-25.128-2.971-35.98v-84h32m-140 32.624C-957.895 479.246-952 504.22-952 520c0 6.943-1.2 15.339 3.352 21.193 9.62 12.375 39.153 9.287 52.648 6.102 20.223-4.772 14.667-28.718 14.667-44.628 0-6.054 1.53-14.63-2.138-19.86-8.601-12.264-40.869-10.015-53.862-7.516" style="fill:#f98202;fill-opacity:1;stroke:none" transform="translate(108.84 -17.117) scale(.09142)"/><path d="M-262.667 616h1.334v-26.667h6.666c0 8.037 3.191 24.756-1.37 31.576-9.828 14.698-16.842-17.03-17.296-22.242h-1.334V624h-8c0-8.093-3.146-24.57 1.572-31.422 10.496-15.241 17.345 18.172 18.428 23.422M-228 589.333V596h-16v6.667c17.602 0 17.602 8 0 8v6.666h16V624c-5.557 0-15.94 1.993-20.648-1.37-6.17-4.408-5.429-28.025.952-31.926 5.006-3.061 14.03-1.37 19.696-1.37m28 0V596h-8v28h-8v-28h-8v-6.667h24m-86.667 28V624h-6.666v-6.667z" style="fill:#050301;stroke:none" transform="translate(108.84 -17.117) scale(.09142)"/></svg>