<svg xmlns="http://www.w3.org/2000/svg" xml:space="preserve" id="Layer_1" width="230" height="40" x="0" y="0" version="1.1"><style id="style1" type="text/css">.st1{fill:#4a4a49}</style><g id="g9" style="fill:#fff" transform="matrix(.33785 0 0 .33785 -28.559 -80.578)"><path id="path1" d="M271.9 285.4c-13-7.4-38.2 1.8-60.8 13.3-5.8-2.7-11.5-5.4-17.1-8 16.6-9.2 30-18.3 33.2-20.5 2.2-1.5 2.7-4.5 1.2-6.6-1.5-2.2-4.5-2.7-6.6-1.2-10.8 7.4-24.7 16.1-38.8 23.5-26.9-11.7-49.8-19-61.7-12.1-3.4 2-7.6 6.2-8.3 14.6-1 13 4.3 18.9 9 21.6 13 7.4 38.2-1.8 60.8-13.3 5.8 2.7 11.5 5.4 17.1 8-16.5 9.2-30 18.3-33.2 20.5-2.2 1.5-2.7 4.5-1.2 6.6 1.5 2.2 4.5 2.7 6.6 1.2 10.8-7.4 24.7-16.1 38.8-23.5 26.9 11.7 49.8 19 61.7 12.1 3.4-2 7.6-6.2 8.3-14.6 1-13.1-4.3-19-9-21.6zm-145.1 16.2c-1.2-.7-4.9-2.8-4.2-12.6.3-4.7 2.2-6.3 3.5-7.1 2.9-1.7 7.5-1.9 13.1-1 8.8 1.4 20.3 5.4 32.6 10.5-19.3 9.2-37.1 14.8-45 10.2zm144.6 4.7c-.3 4.7-2.2 6.3-3.6 7.1-2.9 1.7-7.5 1.9-13.1 1-8.8-1.4-20.3-5.4-32.6-10.5 19.3-9.2 37.1-14.8 45.1-10.2 1.2.7 4.9 2.8 4.2 12.6z" style="fill:#fff"/><g id="g8" style="fill:#fff"><path id="path2" d="M328.6 272h30.6v4.6h-25.7V294h19.2v4.4h-19.2v20.4h27.2v4.5h-32.1z" class="st1" style="fill:#fff"/><path id="path3" d="M387.1 272h5.3l28.3 42.3h.1V272h4.6v51.3H421l-29.2-43.6h-.1v43.6h-4.6z" class="st1" style="fill:#fff"/><path id="path4" d="M455.2 272h13c16.7 0 25.5 8.7 25.5 25.6 0 16.9-9 25.7-25.5 25.7h-13zm13.7 46.9c12.7 0 19.8-6.4 19.8-21.3 0-14.5-7.2-21-20-21H460v42.3z" class="st1" style="fill:#fff"/><path id="path5" d="M521 272h4.9v46.8H551v4.5h-30z" class="st1" style="fill:#fff"/><path id="path6" d="M576.8 272h30.6v4.6h-25.7V294h19.2v4.4h-19.2v20.4h27.2v4.5h-32.1z" class="st1" style="fill:#fff"/><path id="path7" d="m631.4 310.7 4.4-1.6c2.3 7.1 7.5 10.8 14.7 10.8 7.7 0 12.7-3.5 12.7-9.3 0-5.3-2.6-8-13.4-11.5-11-3.5-16.6-6.4-16.6-14.9 0-7.4 6.6-13.2 15.9-13.2 9.6 0 15.2 4.9 17.6 11.8l-4.2 1.9c-2.6-6.7-7.1-9.3-13.5-9.3-6.9 0-11 3.7-11 8.4 0 5.8 3.4 7.7 14.2 11.2 10.7 3.4 15.9 6.9 15.9 15.3 0 8.5-7.6 14-17.8 14-9.7 0-16.5-5.3-18.9-13.6z" class="st1" style="fill:#fff"/><path id="path8" d="m692.3 310.7 4.4-1.6c2.3 7.1 7.5 10.8 14.7 10.8 7.7 0 12.7-3.5 12.7-9.3 0-5.3-2.6-8-13.4-11.5-11-3.5-16.6-6.4-16.6-14.9 0-7.4 6.6-13.2 15.9-13.2 9.6 0 15.2 4.9 17.6 11.8l-4.2 1.9c-2.6-6.7-7.1-9.3-13.5-9.3-6.9 0-11 3.7-11 8.4 0 5.8 3.4 7.7 14.2 11.2 10.7 3.4 15.9 6.9 15.9 15.3 0 8.5-7.6 14-17.8 14-9.7 0-16.5-5.3-18.9-13.6z" class="st1" style="fill:#fff"/></g></g></svg>