<svg xmlns="http://www.w3.org/2000/svg" width="104" height="40"><path d="M58.351 0v24.316c0 4.773 1.178 6.952 6.313 6.952 1.216 0 2.887-.313 4.149-.583L68 25.813c-.854.18-1.6.158-2.14.17-2.246.057-2.052-.682-2.052-2.799v-9.153h4.275V9.975h-4.275V0Zm17.884 0h-5.458v31.27h8.151v-4.147h-2.693ZM9.361 0c-5.63 0-6.59 1.916-6.59 6.33v3.645L0 10.431v3.6h2.771v13.091H0v4.147l10.971-.001v-4.146H8.23V14.031h4.118V9.975H8.23V6.821c0-1.938.502-2.135 2.485-2.135.54 0 .964.024 1.819.16l.746-4.44C12.018.18 10.577.001 9.36.001Zm11.454 5.745v1.386h.665v1.885h.038c-5.22.963-9.176 5.534-9.176 11.032 0 6.196 5.023 11.22 11.22 11.22 2.114 0 4.092-.587 5.78-1.604l.983 1.605h5.766v-5.456h-1.306L34.782 8.83h-5.458v1.593a11.157 11.157 0 0 0-3.711-1.405h.03V7.132h.668V5.746Zm26.204 3.047c-5.123 0-8.201 1.805-8.201 6.405 0 4.86 3.798 6.493 8.583 7.311 2.54.515 3.316 1.03 3.316 2.106 0 .775-.438 2.23-3.148 2.23-.973 0-2.838.036-4.617-.308l.002-.724h-4.132v4.075c2.538.645 5.865 1.381 9.294 1.381 5.124 0 7.557-2.444 7.557-7.173 0-4.988-4.039-5.93-8.061-6.833-2.752-.602-3.104-1.161-3.104-2.194 0-.73.31-2.076 2.85-2.076.889 0 2.528.003 4.18.304v.728h4.132V9.976c-2.54-.646-5.18-1.184-8.65-1.184Zm45.724 1.183v4.052h2.685l-3.964 9.75-3.962-9.75h2.69V9.975H78.928v4.052h2.691l6.996 17.214c-.81 2.476-3.399 3.898-5.695 3.898-.495 0-1.439-.089-2.16-.224l-.494 4.954c1.124.27 2.744.405 3.961.405 4.95 0 8.2-4.491 10.178-9.262l6.904-16.986H104V9.974Zm-68.855 4.294a5.774 5.774 0 0 1 5.438 5.253v.188h-.655v.654h.655v.179a5.774 5.774 0 0 1-5.438 5.256v-.642h-.654v.64a5.774 5.774 0 0 1-5.425-5.458h.65v-.654h-.646a5.774 5.774 0 0 1 5.421-5.414v.642h.654zm2.123 2.921-2.11 1.838a1.003 1.003 0 0 0-.339-.06c-.569 0-1.03.475-1.03 1.06 0 .585.461 1.059 1.03 1.059s1.031-.474 1.031-1.06c0-.11-.017-.217-.048-.318l1.881-2.103zm75.897 9.954a2.056 2.056 0 0 0-2.071 2.059 2.056 2.056 0 0 0 2.07 2.058 2.06 2.06 0 0 0 2.077-2.058 2.061 2.061 0 0 0-2.076-2.059zm0 .347c.953 0 1.729.759 1.729 1.712a1.737 1.737 0 0 1-1.73 1.735 1.732 1.732 0 0 1-1.723-1.735c0-.953.771-1.712 1.724-1.712zm-.789.7v2.023h.465v-.611h.288l.418.611h.57l-.506-.693c.26-.077.424-.3.424-.63 0-.447-.311-.7-.812-.7zm.465.406h.383c.2 0 .34.083.34.295 0 .223-.14.304-.353.304h-.37z" style="fill:#fff;fill-opacity:1;stroke-width:.999997"/></svg>