<svg xmlns="http://www.w3.org/2000/svg" xml:space="preserve" id="svg10" width="126" height="40" version="1.1"><defs id="defs8"><linearGradient id="linearGradient-1" x1="1.127" x2=".094" y1="-.229" y2=".972"><stop id="stop1" offset="0%" stop-color="#2AD1FF"/><stop id="stop2" offset="100%" stop-color="#8966FF"/></linearGradient><linearGradient id="linearGradient-4" x1=".595" x2=".444" y1=".371" y2=".678"><stop id="stop3" offset="0%" stop-color="#2AD1FF"/><stop id="stop4" offset="100%" stop-color="#8966FF"/></linearGradient><linearGradient id="linearGradient-7" x1=".401" x2=".58" y1=".991" y2="-.023"><stop id="stop5" offset="0%" stop-color="#2AD1FF"/><stop id="stop6" offset="100%" stop-color="#8966FF"/></linearGradient><linearGradient id="linearGradient-10" x1=".85" x2=".301" y1="1.315" y2=".113"><stop id="stop7" offset="0%" stop-color="#2AD1FF"/><stop id="stop8" offset="100%" stop-color="#8966FF"/></linearGradient><path id="path-2" d="m10.677 20.595-8.91 8.92C.35 30.928-.275 32.92.112 34.96c.14.74.428 1.45.843 2.078 1.162 1.759 3.037 2.757 5.065 2.757.088 0 .172-.002.262-.007 1.504-.061 2.982-.743 4.159-1.92l12.78-12.781c.17-.168.355-.3.551-.39a3.164 3.164 0 0 1 1.846-.27c.629.1 1.2.429 1.65.88l5.954 5.953c.632.632 1.046 1.467 1.085 2.36a3.415 3.415 0 0 1-1.001 2.582 3.411 3.411 0 0 1-2.43 1.004 3.41 3.41 0 0 1-2.429-1.004l-5.37-5.367a1.293 1.293 0 0 0-1.827 1.827l5.19 5.193c1.203 1.2 2.85 1.89 4.52 1.89 1.44 0 2.815-.509 3.871-1.43 1.964-1.721 2.595-4.51 1.572-6.94-.285-.675-.735-1.323-1.341-1.93l-5.88-5.879c-1.046-1.047-2.357-1.669-3.691-1.752a5.484 5.484 0 0 0-4.258 1.605v.001L8.563 36.09a3.688 3.688 0 0 1-2.582 1.092c-.283 0-.563-.035-.834-.106-1.518-.39-2.54-1.719-2.54-3.303 0-.92.359-1.803.982-2.426l3.18-3.213 6.381-6.382c.015-.014.029-.03.043-.045l-1.345 1.342a3.438 3.438 0 0 0-.833-3.517l-.326-.326a.99.99 0 0 1-.012 1.389"/><path id="path-5" d="M30.751.005c-1.558.028-3.083.71-4.29 1.919l-5.213 5.21a1.293 1.293 0 1 0 1.829 1.829l5.286-5.285c.691-.691 1.628-1.113 2.606-1.089.356.01.71.07 1.06.186.108.035.214.078.313.127 1.205.603 1.935 1.73 1.968 3.027.025.977-.394 1.913-1.085 2.604l-5.942 5.942c-.534.534-1.238.89-1.993.927a3.213 3.213 0 0 1-1.52-.305 1.898 1.898 0 0 1-.549-.391l.283.282a6.014 6.014 0 0 0 4.253 1.762h.375c.34 0 .665-.135.905-.375l5.918-5.917a6.461 6.461 0 0 0 1.885-4.536 5.844 5.844 0 0 0-1.423-3.855A5.955 5.955 0 0 0 30.869.005z"/><path id="path-8" d="m23.504 24.81-.283.283c.17-.17.354-.302.55-.391a3.214 3.214 0 0 1 1.52-.305c.754.037 1.458.392 1.992.926l5.942 5.942c.69.691 1.11 1.628 1.085 2.604-.033 1.299-.763 2.424-1.968 3.028-.099.05-.205.092-.313.127-.35.115-.704.176-1.06.185-.978.025-1.915-.397-2.606-1.088l-5.286-5.286a1.293 1.293 0 0 0-1.828 0l-.002.001a1.293 1.293 0 0 0 0 1.828l5.214 5.21c1.207 1.21 2.732 1.892 4.29 1.92h.118a5.956 5.956 0 0 0 4.548-2.063 5.845 5.845 0 0 0 1.423-3.854 6.46 6.46 0 0 0-1.885-4.536s-4.106-4.096-5.705-5.68a2.118 2.118 0 0 0-1.493-.612 6.016 6.016 0 0 0-4.253 1.762"/></defs><style id="style1">.st0{fill:#3780ff}.st2{fill:#fa3913}</style><g id="g10" style="fill:#fff" transform="scale(.20629)"><path id="path1" d="M73.4 0h5.3c18.4.4 36.5 7.8 49.5 20.9-4.8 4.9-9.7 9.6-14.4 14.5-7.3-6.6-16.1-11.7-25.7-13.5-14.2-3-29.5-.3-41.4 7.8C33.7 38.2 24.9 52.6 23 68c-2.1 15.2 2.2 31.2 12.1 43 9.5 11.5 24 18.7 39 19.2 14 .8 28.6-3.5 38.8-13.3 8-6.9 11.7-17.4 12.9-27.6-16.6 0-33.2.1-49.8 0V68.7h69.9c3.6 22.1-1.6 47-18.4 62.8-11.2 11.2-26.7 17.8-42.5 19.1-15.3 1.5-31.1-1.4-44.7-8.8C24 133.1 11 118.4 4.6 101.1c-6-15.9-6.1-33.9-.5-49.9C9.2 36.6 19 23.7 31.6 14.7 43.7 5.8 58.4.9 73.4 0Z" class="st0" style="fill:#fff"/><path id="path2" d="M474.4 5.2h21.4V148c-7.1 0-14.3.1-21.4-.1.1-47.5 0-95.1 0-142.7z" style="fill:#fff"/><path id="path3" d="M193.5 54.7c13.2-2.5 27.5.3 38.4 8.2 9.9 7 16.8 18 18.9 30 2.7 13.9-.7 29.1-9.7 40.1-9.7 12.3-25.6 18.9-41.1 17.9-14.2-.8-28-7.9-36.4-19.5-9.5-12.8-11.8-30.4-6.6-45.4 5.2-16.1 19.9-28.4 36.5-31.3m3 19c-5.4 1.4-10.4 4.5-14 8.9-9.7 11.6-9.1 30.5 1.6 41.3 6.1 6.2 15.3 9.1 23.8 7.4 7.9-1.4 14.8-6.7 18.6-13.7 6.6-11.9 4.7-28.3-5.4-37.6-6.5-6-16-8.5-24.6-6.3z" class="st2" style="fill:#fff"/><path id="path4" d="M299.5 54.7c15.1-2.9 31.6 1.3 42.9 11.9 18.4 16.5 20.4 47.4 4.7 66.4-9.5 12-24.9 18.6-40.1 17.9-14.5-.4-28.8-7.6-37.4-19.5-9.7-13.1-11.8-31.1-6.3-46.4 5.5-15.6 19.9-27.5 36.2-30.3m3 19c-5.4 1.4-10.4 4.5-14 8.8-9.6 11.4-9.2 30 1.1 40.9 6.1 6.5 15.6 9.7 24.4 7.9 7.8-1.5 14.8-6.7 18.6-13.7 6.5-12 4.6-28.4-5.6-37.7-6.5-6-16-8.4-24.5-6.2z" style="fill:#fff"/><path id="path5" d="M389.4 60.5c11.5-7.2 26.8-9.2 39.2-3 3.9 1.7 7.1 4.6 10.2 7.5.1-2.7 0-5.5.1-8.3 6.7.1 13.4 0 20.2.1V145c-.1 13.3-3.5 27.4-13.1 37.1-10.5 10.7-26.6 14-41.1 11.8-15.5-2.3-29-13.6-35-27.9 6-2.9 12.3-5.2 18.5-7.9 3.5 8.2 10.6 15.2 19.5 16.8 8.9 1.6 19.2-.6 25-8 6.2-7.6 6.2-18 5.9-27.3-4.6 4.5-9.9 8.5-16.3 10-13.9 3.9-29.2-.9-39.9-10.3-10.8-9.4-17.2-23.9-16.6-38.3.3-16.3 9.5-32 23.4-40.5m20.7 12.8c-6.1 1-11.8 4.4-15.7 9.1-9.4 11.2-9.4 29.1.1 40.1 5.4 6.5 14.1 10.1 22.5 9.2 7.9-.8 15.2-5.8 19.1-12.7 6.6-11.7 5.5-27.6-3.4-37.8-5.5-6.3-14.3-9.4-22.6-7.9z" class="st0" style="fill:#fff"/><path id="path6" d="M521.5 65.6c12-11.2 30.5-15 45.9-9.1C582 62 591.3 75.9 596 90.2c-21.7 9-43.3 17.9-65 26.9 3 5.7 7.6 10.9 13.8 13 8.7 3.1 19.1 2 26.4-3.8 2.9-2.2 5.2-5.1 7.4-7.9 5.5 3.7 11 7.3 16.5 11-7.8 11.7-20.9 19.9-35 21.2-15.6 1.9-32.2-4.1-42.3-16.3-16.6-19.2-15-51.4 3.7-68.7m10.7 18.5c-3.4 4.9-4.8 10.9-4.7 16.8 14.5-6 29-12 43.5-18.1-2.4-5.6-8.2-9-14.1-9.9-9.5-1.7-19.4 3.4-24.7 11.2z" class="st2" style="fill:#fff"/></g></svg>