<svg xmlns="http://www.w3.org/2000/svg" width="118" height="40"><defs><linearGradient id="a" x1="25.133" x2="147.37" y1="142.28" y2="142.28" gradientUnits="userSpaceOnUse"><stop offset="0" stop-color="red"/><stop offset="1" stop-color="#670164"/></linearGradient><linearGradient id="b" x1="1765.1" x2="1887.3" y1="692.72" y2="692.72" gradientTransform="rotate(-90 680.97 1231.6)" gradientUnits="userSpaceOnUse"><stop offset="0" stop-color="#ff9"/><stop offset="1" stop-color="#f90"/></linearGradient><linearGradient id="c" x1="1214.6" x2="1336.8" y1="2432.8" y2="2432.8" gradientTransform="rotate(180 680.97 1231.6)" gradientUnits="userSpaceOnUse"><stop offset="0" stop-color="#bfe7e5"/><stop offset="1" stop-color="#0067b1"/></linearGradient><linearGradient id="d" x1="-525.38" x2="-403.14" y1="1882.1" y2="1882.1" gradientTransform="rotate(90 680.97 1231.6)" gradientUnits="userSpaceOnUse"><stop offset="0" stop-color="#ff0"/><stop offset="1" stop-color="#a1c22d"/></linearGradient></defs><path d="m534.712-772.806-.287-.287c-29.43 29.43-74.767 74.352-101.78 101.374 4.155 4.155 8.605 8.822 13.183 13.733 1.074 1.152 2.162 2.376 3.254 3.565 3.49 3.804 7.022 7.76 10.647 11.915a646.976 646.976 0 0 1 4.69 5.431 655.78 655.78 0 0 1 9.904 11.892c1.726 2.12 3.421 4.166 5.145 6.34a607.98 607.98 0 0 1 13.542 17.729c.323.44.658.85.98 1.292 44.16-60.555 79.338-133.826 40.722-172.984zM187.907-773.021c29.424 29.42 74.833 75.153 101.853 102.187.776-.776 1.756-1.671 2.56-2.464a561.652 561.652 0 0 1 10.647-10.217c1.79-1.677 3.692-3.4 5.574-5.12a647.154 647.154 0 0 1 9.547-8.541 654.007 654.007 0 0 1 6.508-5.647 664.865 664.865 0 0 1 12.154-10.144c1.884-1.536 3.696-3.036 5.622-4.57 6.03-4.804 12.22-9.597 18.59-14.284.228-.167.443-.335.67-.502-60.704-44.4-134.434-79.932-173.7-40.746-.013.012-.013.036-.025.048zM534.042-426.12c.15-.143.31-.286.455-.431-29.418-29.43-74.747-74.31-101.78-101.35h-.024c-4.019 4.017-8.51 8.295-13.231 12.705-1.46 1.36-2.979 2.75-4.499 4.139a636.517 636.517 0 0 1-11.89 10.599c-1.363 1.184-2.696 2.348-4.092 3.54a651.057 651.057 0 0 1-15.36 12.753c-.833.67-1.624 1.318-2.465 1.986a603.626 603.626 0 0 1-19.93 15.217l-.024.024c60.42 44.111 133.575 79.283 172.84 40.817zM289.76-527.853c-3.89-3.891-8.033-8.196-12.298-12.753-1.819-1.943-3.658-4-5.527-6.053a635.258 635.258 0 0 1-8.685-9.714 657.706 657.706 0 0 1-15.169-18.04c-1.58-1.943-3.136-3.801-4.714-5.79a607.11 607.11 0 0 1-14.666-19.212c-44.397 60.498-79.911 133.771-40.794 172.936l.024.024c29.43-29.427 74.798-74.376 101.828-101.398z" style="fill:#fff;fill-opacity:.513968" transform="translate(-9.525 -11.037) scale(.08163)"/><path d="M534.042-426.12c-39.265 38.465-112.42 3.293-172.84-40.818-60.625 44.275-134.084 79.608-173.247 40.506.862.856 1.823 1.684 2.704 2.537 1.463 1.417 2.895 2.827 4.426 4.234.627.575 1.325 1.127 1.962 1.7a255.115 255.115 0 0 0 11.843 10 245.216 245.216 0 0 0 6.508 4.929c2.465 1.823 5 3.616 7.585 5.383 35.892 24.336 82.517 42.18 136.951 42.756 69.119-.02 125.782-28.001 164.18-61.944.568-.505 1.162-1.001 1.722-1.508.408-.373.836-.75 1.244-1.124.062-.051.145-.096.215-.144l.024-.024.024-.023.024-.024.024-.024c.165-.152.314-.303.478-.455 1.335-1.264 2.605-2.572 3.9-3.828.74-.716 1.528-1.42 2.273-2.13zM187.86-426.527c-39.04-39.177-3.537-112.439 40.84-172.912-44.272-60.567-79.703-133.951-41.176-173.2-.726.76-1.445 1.565-2.177 2.321-.408.423-.826.827-1.244 1.244-1.094 1.15-2.219 2.282-3.302 3.47a238.22 238.22 0 0 0-20.17 25.409c-.254.37-.487.775-.74 1.148-2.06 3.005-4.06 6.117-6.03 9.284-1.653 2.68-3.26 5.42-4.833 8.206-.263.46-.53.924-.79 1.388-18.505 33.266-31.083 73.932-31.486 119.988.108 55.48 18.002 102.687 42.612 138.961 2.284 3.333 4.562 6.653 6.938 9.786.296.393.588.806.885 1.196 2.2 2.887 4.45 5.7 6.724 8.422.06.067.133.123.191.192 1 1.188 2.005 2.29 3.015 3.445 1.078 1.238 2.139 2.508 3.23 3.708.161.178.34.398.502.575.023.024.05.047.072.071 1.46 1.587 2.957 3.077 4.426 4.594.852.88 1.656 1.843 2.512 2.704zM517.773-298.213c-3.105-2.578-6.405-5.087-9.738-7.584-1.902-1.413-3.796-2.812-5.766-4.187-1.063-.75-2.194-1.462-3.278-2.202-35.92-24.25-82.525-42.004-136.928-42.492-65.624.124-120.065 25.415-158.197 57.087-.026.022-.046.05-.072.072-.244.21-.473.417-.718.622-.727.613-1.442 1.211-2.153 1.818a242.7 242.7 0 0 0-7.154 6.412 530.203 530.203 0 0 1-3.11 3.039c-.809.782-1.639 1.52-2.44 2.297 39.337-38.737 112.878-3.285 173.438 41.009 60.52-44.388 133.704-79.834 172.768-40.794-.335-.334-.69-.67-1.029-1.005-.579-.533-1.16-1.06-1.722-1.603a37.025 37.025 0 0 1-.718-.717c-3.774-3.618-7.692-7.228-11.867-10.72-.426-.355-.887-.698-1.316-1.052zM534.712-772.806c38.616 39.158 3.437 112.429-40.722 172.984.014.018.035.03.048.048-.013.018-.034.03-.048.047 44.143 60.503 79.329 133.657 40.842 172.817.76-.788 1.482-1.6 2.249-2.393 1.194-1.233 2.413-2.439 3.613-3.684.298-.323.611-.632.909-.957.267-.293.523-.615.79-.91a248.964 248.964 0 0 0 9.354-11.005c.1-.125.188-.259.288-.383a250.396 250.396 0 0 0 10.24-13.734c.155-.225.3-.467.454-.694 2.597-3.762 5.083-7.733 7.537-11.747 19.047-31.478 32.931-70.082 35.458-114.246.024-.486.051-.972.072-1.46.183-3.56.255-7.182.287-10.814-.14-70.681-29.471-128.389-64.552-166.74-.03-.032-.041-.086-.072-.119-2.217-2.421-4.49-4.745-6.747-7.01z" style="fill:#fff" transform="translate(-9.525 -11.037) scale(.08163)"/><path d="M187.907-773.021c-.125.125-.26.253-.383.383-38.51 39.23-3.14 112.576 41.105 173.127 7.404-10.09 15.053-19.603 22.658-28.759 1.743-2.103 3.458-4.204 5.192-6.245a655.47 655.47 0 0 1 7.728-8.924 639.888 639.888 0 0 1 6.962-7.776 632.804 632.804 0 0 1 6.628-7.178c4.154-4.423 8.165-8.622 11.963-12.417v-.024c-27.02-27.034-72.43-72.766-101.853-102.187zM492.962-598.363c-4.253 5.794-8.593 11.429-12.944 16.94-2.632 3.331-5.237 6.463-7.872 9.666-2.103 2.56-4.178 5.116-6.268 7.584a647.152 647.152 0 0 1-16.007 18.184c-1.377 1.506-2.765 3.052-4.115 4.498a544.268 544.268 0 0 1-10.958 11.413c-.67.677-1.424 1.52-2.082 2.177 27.034 27.04 72.363 71.92 101.781 101.35l.024-.024c39.013-39.077 3.737-112.478-40.53-173.151-.34.465-.689.9-1.03 1.363zM361.202-466.938c-6.85-5-13.501-10.105-19.954-15.24-.86-.683-1.661-1.351-2.512-2.034a648.982 648.982 0 0 1-14.69-12.155c-1.844-1.571-3.599-3.11-5.384-4.665a630.405 630.405 0 0 1-10.862-9.714c-1.63-1.488-3.274-2.97-4.833-4.426a543.636 543.636 0 0 1-10.576-10.121c-.828-.817-1.833-1.737-2.631-2.536v-.024c-27.031 27.022-72.4 71.971-101.829 101.398l.024.023c39.163 39.102 112.622 3.77 173.247-40.506zM361.68-732.323c.088.063.153.151.24.215 6.654 4.873 13.08 9.836 19.356 14.834.911.725 1.778 1.427 2.68 2.153a650.073 650.073 0 0 1 15.24 12.633c1.333 1.141 2.599 2.265 3.9 3.398a633.969 633.969 0 0 1 12.083 10.766c1.374 1.26 2.767 2.52 4.091 3.757 4.77 4.453 9.32 8.792 13.375 12.848 27.013-27.022 72.35-71.968 101.78-101.398-39.064-39.04-112.224-3.594-172.744 40.794z" style="fill:#fff;fill-opacity:.232752" transform="translate(-9.525 -11.037) scale(.08163)"/><g fill="none" stroke="#000" style="stroke:#fff;stroke-width:8.64759471;stroke-dasharray:none"><path stroke-width="5.558" d="M366.16 366.28c-38.475 38.486-126.41-30.15-164.24-68.004-18.14 18.142-48.589 48.291-68.343 68.043 25.639 25.624 66.455 48.078 117.22 48.078 50.762 0 90.773-23.503 115.36-48.117zm-.04-232.61c38.488 38.491-30.146 126.42-67.989 164.26 18.151 18.138 48.291 48.589 68.03 68.341 25.635-25.646 48.087-66.462 48.087-117.22 0-50.753-23.525-90.764-48.128-115.38zm-232.27.4c38.491-38.478 126.11 29.811 163.95 67.641 18.119-18.127 48.571-48.284 68.317-68.037-25.622-25.616-66.444-48.069-117.21-48.069-50.766-.002-90.454 23.87-115.06 48.465z" style="stroke:#fff;stroke-width:8.64759471;stroke-dasharray:none" transform="matrix(.11564 0 0 .11564 -8.949 -8.932)"/><path stroke-width="2.779" d="M366.08 366.28c38.493-38.486-30.142-126.42-67.983-164.27 18.134-18.142 48.276-48.586 68.022-68.337 25.646 25.65 48.095 66.455 48.095 117.22-.002 50.77-23.525 90.773-48.134 115.39zM133.85 134.07c38.491-38.478 126.11 29.811 163.95 67.641 18.119-18.127 48.571-48.284 68.317-68.037-25.622-25.616-66.444-48.069-117.21-48.069-50.766-.002-90.454 23.87-115.06 48.465z" style="stroke:#fff;stroke-width:4.32379736;stroke-dasharray:none" transform="matrix(.11564 0 0 .11564 -8.949 -8.932)"/><g stroke-width="5.558" style="stroke:#fff;stroke-width:8.64759471;stroke-dasharray:none"><path d="M297.84 298.23c-12.012 12.012-29.075 27.124-47.998 40.931 40.701 29.716 90.045 53.397 116.32 27.113-19.738-19.751-50.192-49.907-68.322-68.044Zm-52.643 116.06c-35.172-1.152-65.323-13.047-88.648-28.99 23.012 15.865 53.106 28.171 88.648 28.99zm-111.57-48.023c-.015-.017-.032-.032-.046-.044.014.011.031.03.046.044z" style="stroke:#fff;stroke-width:8.64759471;stroke-dasharray:none" transform="matrix(.11564 0 0 .11564 -8.949 -8.932)"/><path d="M384.66 344.03c16.189-23.214 28.795-53.754 29.512-89.906-1.062 35.759-13.234 66.362-29.512 89.906zm-45.64-94.031c29.709-40.701 53.384-90.039 27.1-116.32-19.744 19.75-49.889 50.19-68.022 68.331 12.01 12.012 27.118 29.07 40.922 47.989zm27.065 116.28c.012-.012.026-.029.039-.039-.015.012-.026.026-.039.039z" style="stroke:#fff;stroke-width:8.64759471;stroke-dasharray:none" transform="matrix(.11564 0 0 .11564 -8.949 -8.932)"/><path d="M343.22 114.73c-23.156-15.989-53.499-28.377-89.367-29.057 35.485 1.023 65.892 12.993 89.367 29.057zm-209.37 19.335c19.746 19.74 49.892 50.149 68.026 68.28 12.002-12.008 29.049-27.712 47.961-41.511-40.588-29.57-89.723-53.024-115.99-26.769zm232.22-.346c.014.017.033.031.048.046a1.085 1.085 0 0 0-.048-.046z" style="stroke:#fff;stroke-width:8.64759471;stroke-dasharray:none" transform="matrix(.11564 0 0 .11564 -8.949 -8.932)"/><path d="m133.92 134.02-.046.046h.002c.017-.014.03-.031.044-.046zm-19.094 22.988c-15.909 23.075-28.24 53.28-28.988 88.952 1.087-35.298 13.001-65.558 28.988-88.952zm46.153 93.268c-29.712 40.701-53.391 90.045-27.113 116.34 19.751-19.759 49.903-50.199 68.043-68.341-12.012-12.012-27.124-29.073-40.929-47.995z" style="stroke:#fff;stroke-width:8.64759471;stroke-dasharray:none" transform="matrix(.11564 0 0 .11564 -8.949 -8.932)"/><path d="M133.87 366.61c-38.48-38.497 30.159-126.44 68.004-164.27-18.138-18.142-48.289-48.586-68.041-68.326-25.631 25.629-48.078 66.453-48.078 117.21-.002 50.761 23.523 90.769 48.115 115.38z" style="stroke:#fff;stroke-width:8.64759471;stroke-dasharray:none" transform="matrix(.11564 0 0 .11564 -8.949 -8.932)"/></g><g stroke-width="2.779" style="stroke:#fff;stroke-width:8.64759471;stroke-dasharray:none"><path d="M133.57 366.23c38.488 38.478 126.42-30.15 164.26-67.993 18.13 18.138 48.586 48.291 68.322 68.043-25.628 25.628-66.446 48.071-117.21 48.071-50.762.002-90.771-23.512-115.38-48.121z" style="stroke:#fff;stroke-width:4.32379736;stroke-dasharray:none" transform="matrix(.11564 0 0 .11564 -8.949 -8.932)"/><path d="M366.16 366.28c-38.475 38.486-126.41-30.15-164.24-68.004-18.14 18.142-48.589 48.291-68.343 68.043 25.639 25.624 66.455 48.078 117.22 48.078 50.762 0 90.773-23.503 115.36-48.117zm-.04-232.61c38.488 38.491-30.146 126.42-67.989 164.26 18.151 18.138 48.291 48.589 68.03 68.341 25.635-25.646 48.087-66.462 48.087-117.22 0-50.753-23.525-90.764-48.128-115.38z" style="stroke:#fff;stroke-width:8.64759;stroke-dasharray:none" transform="matrix(.11564 0 0 .11564 -8.949 -8.932)"/><path d="M366.12 133.77c-38.482-38.486-126.42 30.14-164.25 67.98-18.134-18.13-48.276-47.939-68.022-67.68 25.626-25.626 66.131-48.436 116.9-48.436 50.77 0 90.765 23.523 115.37 48.136z" style="stroke:#fff;stroke-width:4.32379736;stroke-dasharray:none" transform="matrix(.11564 0 0 .11564 -8.949 -8.932)"/><path d="M133.92 134.02c-38.488 38.48 30.146 126.41 67.989 164.25-18.14 18.142-48.291 48.582-68.043 68.341-25.62-25.635-48.078-66.462-48.078-117.22 0-50.761 23.523-90.777 48.132-115.37z" style="stroke:#fff;stroke-width:4.32379736;stroke-dasharray:none" transform="matrix(.11564 0 0 .11564 -8.949 -8.932)"/><path d="M133.87 366.61c-38.48-38.497 30.159-126.44 68.004-164.27-18.138-18.142-48.289-48.586-68.041-68.326-25.631 25.629-48.078 66.453-48.078 117.21-.002 50.761 23.523 90.769 48.115 115.38z" style="stroke:#fff;stroke-width:8.64759471;stroke-dasharray:none" transform="matrix(.11564 0 0 .11564 -8.949 -8.932)"/></g></g><g fill="#3f3f3f" style="fill:#fff"><path d="M339.97 497.47c0 5.003-1.443 5.85-6.018 5.85-4.667 0-6.106-.847-6.106-5.85 0-4.493 1.439-5.17 6.106-5.17 4.574 0 6.018.677 6.018 5.17zm-.851 43.816c0 6.675 3.22 10.186 3.22 10.186s-4.273 3.37-7.565 3.37c-4.327 0-6.168-7.773-6.168-10.987v-33.584h10.514c-.001-.001-.001 24.345-.001 31.015zM465.38 497.47c0 5.003-1.443 5.85-6.021 5.85-4.665 0-6.104-.847-6.104-5.85 0-4.493 1.439-5.17 6.104-5.17 4.578 0 6.021.677 6.021 5.17zm-.851 43.816c0 6.675 3.216 10.186 3.216 10.186s-4.271 3.37-7.562 3.37c-4.325 0-6.169-7.773-6.169-10.987v-33.584h10.515zM363.2 554.44c-11.87 0-18.145-4.919-18.145-22.471 0-17.632 6.529-22.973 20.771-22.973 4.582 0 10.146.664 14.606 1.849 4.589 1.221 4.216 5.021 4.216 5.021v34.244c0 16.869-9.408 20.606-23.058 20.606-3.313 0-7.373-.449-10.785-1.272-4.454-1.077-2.848-7.456-2.848-7.456l.574-2.294c3.984 1.271 8.9 2.118 12.971 2.118 7.973 0 12.632-2.208 12.632-10.173-2.37 1.439-6.018 2.801-10.934 2.801zm10.935-33.363s.229-2.146-2.57-2.758c-1.908-.417-3.958-.675-5.738-.675-7.457 0-9.916 1.948-9.916 14.241 0 10.767 2.286 13.482 9.661 13.482 4.663 0 8.563-1.445 8.563-4.07zM445.94 498.69v42.61c0 4.152.934 7.037 3.306 10.174 0 0-8.102 6.646-11.206 1.285-1.675-2.886-2.615-6.332-2.615-11.036v-49.511h4.34c6.647.001 6.175 6.478 6.175 6.478zM507.91 547.52s0 3.813-4.399 5.097c-4.818 1.405-10.559 1.992-15.101 1.992-13.646 0-18.229-3.134-18.229-14.41 0-12.21 6.869-14.159 16.957-14.159 3.647 0 7.038.42 10.683 1.185 0-7.541-1.78-9.408-10.769-9.408a41.09 41.09 0 0 0-7.358.65c-6.097 1.112-6.767-3.272-6.767-3.272l-.881-3.905c2.346-.617 5.233-1.213 8.34-1.644 2.859-.394 5.905-.645 8.874-.645 12.8 0 18.649 3.898 18.649 16.786v21.733zm-10.089-4.468v-8.704c-2.374-.51-5.427-.763-8.561-.763-5.936 0-8.059.68-8.059 6.188 0 5.849 1.611 6.784 7.973 6.784 2.207 0 4.465-.313 6.477-.807 2.23-.528 2.17-2.698 2.17-2.698zM428.22 547.52s.002 3.813-4.399 5.097c-4.815 1.405-10.555 1.992-15.101 1.992-13.647 0-18.225-3.134-18.225-14.41 0-12.21 6.863-14.159 16.953-14.159 3.647 0 7.039.42 10.683 1.185 0-7.541-1.778-9.408-10.767-9.408a41.17 41.17 0 0 0-7.36.65c-6.097 1.112-6.763-3.272-6.763-3.272l-.883-3.905c2.338-.617 5.229-1.213 8.34-1.644 2.857-.394 5.903-.645 8.872-.645 12.8 0 18.649 3.898 18.649 16.786v21.733zm-10.089-4.468v-8.704c-2.374-.51-5.426-.763-8.561-.763-5.936 0-8.056.68-8.056 6.188 0 5.849 1.61 6.784 7.969 6.784 2.21 0 4.468-.313 6.478-.807 2.231-.528 2.17-2.698 2.17-2.698z" style="fill:#fff" transform="matrix(.34584 0 0 .34584 -63.51 -160.955)"/></g></svg>