<svg xmlns="http://www.w3.org/2000/svg" xmlns:xlink="http://www.w3.org/1999/xlink" width="118" height="40"><defs><linearGradient xlink:href="#a" id="e" x1="25.133" x2="147.37" y1="142.28" y2="142.28" gradientUnits="userSpaceOnUse"/><linearGradient id="a" x1="25.133" x2="147.37" y1="142.28" y2="142.28" gradientUnits="userSpaceOnUse"><stop offset="0" stop-color="red"/><stop offset="1" stop-color="#670164"/></linearGradient><linearGradient xlink:href="#b" id="g" x1="1765.1" x2="1887.3" y1="692.72" y2="692.72" gradientTransform="rotate(-90 680.97 1231.6)" gradientUnits="userSpaceOnUse"/><linearGradient id="b" x1="1765.1" x2="1887.3" y1="692.72" y2="692.72" gradientTransform="rotate(-90 680.97 1231.6)" gradientUnits="userSpaceOnUse"><stop offset="0" stop-color="#ff9"/><stop offset="1" stop-color="#f90"/></linearGradient><linearGradient xlink:href="#c" id="i" x1="1214.6" x2="1336.8" y1="2432.8" y2="2432.8" gradientTransform="rotate(180 680.97 1231.6)" gradientUnits="userSpaceOnUse"/><linearGradient id="c" x1="1214.6" x2="1336.8" y1="2432.8" y2="2432.8" gradientTransform="rotate(180 680.97 1231.6)" gradientUnits="userSpaceOnUse"><stop offset="0" stop-color="#bfe7e5"/><stop offset="1" stop-color="#0067b1"/></linearGradient><linearGradient xlink:href="#d" id="k" x1="-525.38" x2="-403.14" y1="1882.1" y2="1882.1" gradientTransform="rotate(90 680.97 1231.6)" gradientUnits="userSpaceOnUse"/><linearGradient id="d" x1="-525.38" x2="-403.14" y1="1882.1" y2="1882.1" gradientTransform="rotate(90 680.97 1231.6)" gradientUnits="userSpaceOnUse"><stop offset="0" stop-color="#ff0"/><stop offset="1" stop-color="#a1c22d"/></linearGradient><linearGradient xlink:href="#a" id="f" x1="25.133" x2="147.37" y1="142.28" y2="142.28" gradientUnits="userSpaceOnUse"/><linearGradient xlink:href="#b" id="h" x1="1765.1" x2="1887.3" y1="692.72" y2="692.72" gradientTransform="rotate(-90 680.97 1231.6)" gradientUnits="userSpaceOnUse"/><linearGradient xlink:href="#c" id="j" x1="1214.6" x2="1336.8" y1="2432.8" y2="2432.8" gradientTransform="rotate(180 680.97 1231.6)" gradientUnits="userSpaceOnUse"/><linearGradient xlink:href="#d" id="l" x1="-525.38" x2="-403.14" y1="1882.1" y2="1882.1" gradientTransform="rotate(90 680.97 1231.6)" gradientUnits="userSpaceOnUse"/></defs><path fill="#fff" d="M19.846.005C14.5.005 10.135 2.15 7.118 4.669c-.023.019-.043.04-.066.058-.08.068-.16.134-.238.203-.134.115-.27.23-.398.347-.132.121-.25.247-.376.369-.074.071-.153.138-.224.21-.072.071-.14.15-.21.224-.045.046-.093.09-.138.137-.07.076-.145.147-.216.225-.006.006-.01.015-.015.021-.187.205-.373.417-.557.637l-.094.115a19.556 19.556 0 0 0-.94 1.237l-.058.087C1.7 11.26.221 14.819.029 19.004c-.006.133-.01.264-.014.398-.009.248-.015.5-.015.752 0 4.981 1.84 9.084 4.123 12.056.167.218.335.432.506.637.019.022.04.043.058.065.082.097.163.188.246.282.101.117.2.235.304.347.121.133.246.257.368.384.071.073.139.153.21.224.072.071.151.139.224.21.12.115.237.232.362.347.051.047.107.09.16.137.366.33.751.659 1.164.977.043.033.086.068.13.1 2.88 2.184 6.808 3.955 11.529 4.065.229.008.462.015.694.015 5.377 0 9.76-2.171 12.78-4.709l.043-.036c.21-.176.405-.356.6-.535l.022-.015c.125-.115.242-.238.362-.354.073-.07.153-.138.224-.21.072-.071.138-.15.21-.224.122-.126.247-.244.368-.376.285-.311.566-.649.84-.99 2.34-2.914 4.3-7.004 4.419-11.97.007-.23.014-.462.014-.695 0-4.587-1.585-8.45-3.623-11.362-.02-.03-.038-.059-.058-.087-.333-.471-.675-.912-1.027-1.331l-.036-.043c-.177-.21-.356-.412-.535-.608-.006-.006-.009-.015-.015-.022-.115-.125-.238-.241-.354-.361-.071-.073-.139-.153-.21-.224-.071-.072-.151-.14-.224-.21-.047-.045-.09-.093-.138-.138-.073-.069-.142-.14-.217-.21-.008-.007-.02-.013-.029-.021a19.15 19.15 0 0 0-.643-.564l-.036-.03C29.975 2.296 25.93.258 20.993.03c-.115-.007-.23-.01-.347-.014h-.043c-.248-.01-.5-.015-.752-.015zm.152 9.178a51.414 51.414 0 0 1 5.794 4.947 51.785 51.785 0 0 1 5.012 5.873 51.617 51.617 0 0 1-5.005 5.865 51.76 51.76 0 0 1-5.837 4.977 51.204 51.204 0 0 1-5.832-4.97 51.85 51.85 0 0 1-4.991-5.851 52.21 52.21 0 0 1 4.99-5.822 52.653 52.653 0 0 1 5.866-5.02z"/><path fill="url(#e)" d="M25.133 147.53c20.229 20.221 66.438-15.891 86.329-35.777 9.527 9.531 25.533 25.377 35.91 35.758-13.47 13.46-34.92 25.26-61.6 25.26-26.681 0-47.707-12.31-60.637-25.24z" style="fill:url(#f)" transform="matrix(.23144 0 0 .23144 0 .005)"/><path fill="url(#g)" d="M147.37 147.51c20.23-20.227-16.041-66.597-35.928-86.484 9.527-9.531 25.529-25.381 35.904-35.761 13.479 13.477 25.28 34.927 25.28 61.606 0 26.678-12.323 47.704-25.256 60.639z" style="fill:url(#h)" transform="matrix(.23144 0 0 .23144 0 .005)"/><path fill="url(#i)" d="M147.35 25.265c-20.23-20.23-66.418 16.197-86.302 36.084-9.529-9.528-25.557-25.687-35.934-36.062C38.58 11.818 60.034.018 86.715.018c26.68 0 47.702 12.314 60.633 25.247z" style="fill:url(#j)" transform="matrix(.23144 0 0 .23144 0 .005)"/><path fill="url(#k)" d="M25.114 25.288C4.887 45.513 41.162 91.881 61.048 111.77c-9.534 9.53-25.535 25.38-35.915 35.76C11.666 134.06.021 112.76.021 86.081c0-26.68 12.159-47.865 25.093-60.793Z" style="fill:url(#l)" transform="matrix(.23144 0 0 .23144 0 .005)"/><g style="mix-blend-mode:multiply"><path fill="url(#e)" d="M147.37 147.51c-20.223 20.229-66.438-15.846-86.324-35.74-9.534 9.531-25.535 25.381-35.915 35.76 13.474 13.469 34.926 25.27 61.608 25.27 26.674-.001 47.705-12.358 60.631-25.29z" style="fill:url(#e)" transform="matrix(.23144 0 0 .23144 0 .005)"/><path fill="url(#g)" d="M147.35 25.265c20.229 20.228-15.998 66.601-35.887 86.487 9.537 9.539 25.533 25.377 35.91 35.758 13.471-13.479 25.272-34.928 25.272-61.603 0-26.679-12.36-47.707-25.29-60.642z" style="fill:url(#g)" transform="matrix(.23144 0 0 .23144 0 .005)"/><path fill="url(#i)" d="M25.114 25.288C45.343 5.065 91.557 41.135 111.44 61.026c9.53-9.533 25.53-25.381 35.91-35.761C133.88 11.797 112.43 0 85.747 0 59.066 0 38.048 12.359 25.114 25.288Z" style="fill:url(#i)" transform="matrix(.23144 0 0 .23144 0 .005)"/><path fill="url(#k)" d="M25.133 147.53C4.904 127.3 41.156 81.231 61.048 61.35c-9.532-9.537-25.555-25.684-35.934-36.062C11.643 38.761 0 60.37 0 87.049 0 113.72 12.204 134.6 25.133 147.53Z" style="fill:url(#k)" transform="matrix(.23144 0 0 .23144 0 .005)"/></g><g fill="#3f3f3f"><path d="M54.067 11.092c0 1.73-.5 2.023-2.082 2.023-1.614 0-2.111-.293-2.111-2.023 0-1.554.497-1.788 2.111-1.788 1.582 0 2.082.234 2.082 1.788zm-.295 15.154c0 2.308 1.114 3.522 1.114 3.522s-1.478 1.166-2.616 1.166c-1.497 0-2.134-2.688-2.134-3.8V15.519h3.637v10.727zM97.439 11.092c0 1.73-.5 2.023-2.082 2.023-1.614 0-2.112-.293-2.112-2.023 0-1.554.498-1.788 2.112-1.788 1.583 0 2.082.234 2.082 1.788zm-.294 15.154c0 2.308 1.112 3.522 1.112 3.522s-1.477 1.166-2.615 1.166c-1.496 0-2.134-2.688-2.134-3.8V15.519h3.637zM62.1 30.795c-4.105 0-6.275-1.701-6.275-7.772 0-6.098 2.258-7.945 7.184-7.945 1.584 0 3.509.23 5.051.64 1.587.422 1.458 1.736 1.458 1.736v11.843c0 5.834-3.254 7.127-7.974 7.127-1.146 0-2.55-.156-3.73-.44-1.54-.373-.985-2.579-.985-2.579l.198-.793c1.378.44 3.078.732 4.486.732 2.758 0 4.369-.763 4.369-3.518-.82.498-2.081.969-3.781.969zm3.782-11.539s.08-.742-.889-.953a9.66 9.66 0 0 0-1.984-.234c-2.579 0-3.43.674-3.43 4.925 0 3.724.791 4.663 3.342 4.663 1.613 0 2.961-.5 2.961-1.408zM90.716 11.514V26.25c0 1.436.323 2.434 1.143 3.519 0 0-2.802 2.298-3.876.444-.579-.998-.904-2.19-.904-3.816V9.274h1.501c2.299 0 2.136 2.24 2.136 2.24zM112.148 28.402s0 1.318-1.522 1.762c-1.666.486-3.652.69-5.222.69-4.72 0-6.305-1.085-6.305-4.984 0-4.223 2.376-4.897 5.865-4.897 1.261 0 2.434.145 3.694.41 0-2.608-.615-3.254-3.724-3.254-.87 0-1.739.076-2.545.225-2.108.384-2.34-1.132-2.34-1.132l-.305-1.35a25.19 25.19 0 0 1 2.885-.569 22.787 22.787 0 0 1 3.069-.223c4.426 0 6.45 1.348 6.45 5.805v7.517zm-3.49-1.546v-3.01c-.82-.176-1.877-.264-2.96-.264-2.053 0-2.788.235-2.788 2.14 0 2.023.558 2.346 2.758 2.346a9.58 9.58 0 0 0 2.24-.279c.771-.182.75-.933.75-.933zM84.587 28.402s.001 1.318-1.521 1.762c-1.665.486-3.65.69-5.223.69-4.72 0-6.303-1.085-6.303-4.984 0-4.223 2.374-4.897 5.863-4.897 1.262 0 2.435.145 3.695.41 0-2.608-.615-3.254-3.724-3.254-.868 0-1.738.076-2.545.225-2.109.384-2.339-1.132-2.339-1.132l-.305-1.35c.808-.214 1.808-.42 2.884-.569a22.768 22.768 0 0 1 3.068-.223c4.427 0 6.45 1.348 6.45 5.805v7.517zm-3.489-1.546v-3.01c-.821-.176-1.876-.264-2.96-.264-2.054 0-2.787.235-2.787 2.14 0 2.023.557 2.346 2.756 2.346.765 0 1.545-.108 2.24-.279.772-.182.751-.933.751-.933z"/></g></svg>