<svg xmlns="http://www.w3.org/2000/svg" width="200" height="40"><g aria-label="LibreOffice" style="font-size:5.84217px;line-height:0%;font-family:Vegur;-inkscape-font-specification:Vegur;display:inline;fill:#128902;stroke-width:.999994"><path d="M47.22 2.366v22.301h14.44v-3.388H51.629V2.366Zm17.082 22.301h4.408V8.616h-4.408Zm2.204-17.433a2.534 2.534 0 0 0 2.533-2.533 2.555 2.555 0 0 0-2.533-2.532A2.534 2.534 0 0 0 63.973 4.7a2.513 2.513 0 0 0 2.533 2.533Zm9.892 3.256h-.066V.984h-4.408v23.683h4.31l.098-1.875h.066c1.381 1.546 2.763 2.204 5.032 2.204 4.276 0 7.105-3.848 7.105-8.65 0-4.639-2.533-8.06-6.907-8.06-2.336 0-3.717.691-5.23 2.204zm-.066 5.79c0-2.764 1.25-4.605 3.618-4.605 2.632 0 3.947 1.874 3.947 4.933 0 3.026-1.283 5-3.881 5-2.27 0-3.684-1.776-3.684-4.605zm24.013-7.993c-2.105.131-4.112 1.414-5.033 3.19h-.065l-.1-2.861H90.84v16.051h4.408v-6.052c0-3.224.592-4.375 1.611-5.099.888-.624 1.94-.888 3.388-.953zm16.235 7.4c0-3.98-2.433-7.4-6.643-7.4-5.066 0-8.322 3.486-8.322 8.782 0 5.164 3.355 7.927 8.322 7.927 2.335 0 3.98-.362 5.525-1.053l-.46-3.289c-1.447.592-2.927.954-4.506.954-2.665 0-4.375-1.217-4.54-3.717h10.427c.132-.592.198-1.513.198-2.204zm-7.104-4.012c1.908 0 2.796 1.545 2.862 3.19h-6.217c.329-1.842 1.612-3.19 3.355-3.19z" style="fill:#18a303" transform="scale(.99794 1.00206)"/><path d="M129.978 2.037c-5.92 0-10.788 4.309-10.788 11.48 0 7.17 4.868 11.479 10.788 11.479s10.789-4.309 10.789-11.48c0-7.17-4.868-11.479-10.789-11.479zm0 2.237c4.408 0 7.763 3.289 7.763 9.242 0 5.954-3.355 9.243-7.763 9.243-4.407 0-7.762-3.289-7.762-9.243 0-5.953 3.355-9.242 7.762-9.242zm14.988 3.453v1.02h-2.599v2.105h2.599v13.815h2.763V10.852h4.078V8.747h-4.078V7.3c0-2.862 1.217-4.54 3.42-4.54 1.02 0 1.678.165 2.303.395l.263-2.039c-.592-.23-1.71-.46-2.598-.46-3.915 0-6.151 2.532-6.151 7.071z" style="fill:#000" transform="scale(.99794 1.00206)"/><path d="M154.131 7.727v1.02h-2.598v2.105h2.598v13.815h2.763V10.852h4.079V8.747h-4.079V7.3c0-2.862 1.217-4.54 3.42-4.54 1.02 0 1.678.165 2.303.395l.264-2.039c-.593-.23-1.71-.46-2.599-.46-3.914 0-6.15 2.532-6.15 7.071zm10.022 16.94h2.763V8.747h-2.763zm1.382-18.88a1.7 1.7 0 0 0 1.71-1.71c0-.955-.757-1.711-1.71-1.711-.954 0-1.71.756-1.71 1.71s.756 1.71 1.71 1.71zm7.115 10.854c0-4.013 2.401-6.118 5.526-6.118 1.645 0 3.092.395 4.276.954l.263-2.105c-.986-.493-2.565-.954-4.309-.954-4.933 0-8.65 2.993-8.65 8.585 0 5.263 3.355 7.993 7.795 7.993 1.974 0 3.388-.23 5-.921l-.263-2.105a10.399 10.399 0 0 1-4.243.92c-3.19 0-5.395-2.006-5.395-6.249zm25.622.691c.066-.592.099-1.085.099-1.579 0-4.078-2.138-7.335-6.25-7.335-4.44 0-7.696 3.684-7.696 8.585 0 5.394 3.256 7.993 7.696 7.993 1.974 0 3.454-.296 5-.921l-.263-2.105c-1.217.592-2.96.92-4.342.92-3.19 0-5.263-1.94-5.329-5.558zm-6.38-6.809c2.433 0 3.749 2.007 3.749 4.638h-8.322c.395-2.796 1.94-4.638 4.572-4.638z" style="fill:#000" transform="scale(.99794 1.00206)"/></g><g style="font-size:5.84219px;line-height:0%;font-family:Vegur;-inkscape-font-specification:&quot;Andale Mono&quot;;display:inline;stroke-width:.999994"><path d="M54.763 29.678h-6.715v.928h2.77v8.325h1.147v-8.325h2.798zm2.21 3.74v-4.313h-1.146v9.826h1.146v-3.63c0-1.365.833-2.184 1.856-2.184 1.065 0 1.324.6 1.324 1.87v3.944h1.146v-4.299c0-1.61-.737-2.443-2.142-2.443-.983 0-1.692.546-2.156 1.229zm11.6 2.47c.027-.246.041-.45.041-.655 0-1.692-.887-3.044-2.593-3.044-1.842 0-3.193 1.529-3.193 3.562 0 2.238 1.35 3.316 3.193 3.316.819 0 1.433-.122 2.074-.382l-.109-.873c-.505.246-1.228.382-1.801.382-1.324 0-2.184-.805-2.21-2.306zm-2.647-2.825c1.01 0 1.555.832 1.555 1.924H64.03c.163-1.16.805-1.924 1.897-1.924zm7.396-3.262v9.048c.669.096 1.651.15 2.388.15 2.798 0 5.432-1.624 5.432-4.98 0-2.949-2.02-4.409-5.404-4.409-.75 0-1.624.055-2.416.191zm1.146.82c.424-.07.888-.083 1.392-.083 2.607 0 4.026 1.392 4.026 3.617 0 2.633-1.828 3.916-4.04 3.916-.422 0-.9-.013-1.378-.054zM85.4 32.19c-1.993 0-3.18 1.5-3.18 3.438 0 1.938 1.187 3.44 3.18 3.44 1.992 0 3.18-1.502 3.18-3.44 0-1.937-1.188-3.439-3.18-3.439zm0 6.004c-1.379 0-1.98-1.187-1.98-2.566 0-1.378.601-2.565 1.98-2.565 1.378 0 1.978 1.187 1.978 2.565 0 1.379-.6 2.566-1.978 2.566zm5.5-2.593c0-1.665.995-2.538 2.292-2.538.682 0 1.283.164 1.774.396l.11-.874a4.194 4.194 0 0 0-1.789-.396c-2.047 0-3.589 1.242-3.589 3.562 0 2.184 1.392 3.316 3.235 3.316.818 0 1.405-.095 2.074-.382l-.11-.873a4.314 4.314 0 0 1-1.76.382c-1.323 0-2.238-.832-2.238-2.593zm9.866 2.239.04 1.091h1.106v-6.605h-1.146v3.63c0 1.365-.833 2.183-1.856 2.183-1.065 0-1.324-.6-1.324-1.87v-3.943H96.44v4.299c0 1.61.737 2.442 2.142 2.442.983 0 1.693-.545 2.157-1.228zm11.272-2.99v4.081h1.146v-4.435c0-1.474-.682-2.307-1.992-2.307-.942 0-1.692.6-2.129 1.488h-.04c-.26-.928-.806-1.488-1.857-1.488-.941 0-1.542.505-2.006 1.229h-.027l-.041-1.092h-1.105v6.605h1.146v-3.357c0-1.488.655-2.457 1.679-2.457.86 0 1.2.6 1.2 1.734v4.08h1.147v-3.357c0-1.515.655-2.457 1.678-2.457.86 0 1.201.6 1.201 1.734zm8.42 1.038c.028-.246.041-.45.041-.655 0-1.692-.887-3.044-2.593-3.044-1.842 0-3.193 1.529-3.193 3.562 0 2.238 1.35 3.316 3.193 3.316.819 0 1.433-.122 2.075-.382l-.11-.873c-.505.246-1.228.382-1.801.382-1.324 0-2.184-.805-2.21-2.306zm-2.647-2.825c1.01 0 1.555.832 1.555 1.924h-3.452c.164-1.16.805-1.924 1.897-1.924zm5.459.355-.041-1.092h-1.106v6.605h1.146v-3.63c0-1.365.833-2.184 1.856-2.184 1.065 0 1.324.6 1.324 1.87v3.944h1.147v-4.299c0-1.61-.737-2.443-2.143-2.443-.983 0-1.692.546-2.156 1.229zm9.43-1.092h-1.584v-1.46h-1.146v1.46h-1.05v.873h1.05v4.108c0 1.2.655 1.76 1.72 1.76.559 0 .928-.054 1.214-.177l-.123-.832a1.911 1.911 0 0 1-.737.136c-.668 0-.928-.382-.928-1.174V33.2h1.583zm5.895 6.605v-4.176h3.316v-.928h-3.316v-3.22h3.78v-.929h-4.927v9.253zm7.915-6.741c-1.992 0-3.18 1.5-3.18 3.438 0 1.938 1.188 3.44 3.18 3.44 1.992 0 3.18-1.502 3.18-3.44 0-1.937-1.188-3.439-3.18-3.439zm0 6.004c-1.378 0-1.979-1.187-1.979-2.566 0-1.378.6-2.565 1.979-2.565 1.378 0 1.979 1.187 1.979 2.565 0 1.379-.6 2.566-1.979 2.566zm9.034-.354.041 1.091h1.105v-6.605h-1.146v3.63c0 1.365-.832 2.183-1.856 2.183-1.064 0-1.324-.6-1.324-1.87v-3.943h-1.146v4.299c0 1.61.737 2.442 2.143 2.442.982 0 1.692-.545 2.156-1.228zm4.367-4.422-.04-1.092h-1.106v6.605h1.146v-3.63c0-1.365.833-2.184 1.856-2.184 1.065 0 1.324.6 1.324 1.87v3.944h1.146v-4.299c0-1.61-.737-2.443-2.142-2.443-.983 0-1.693.546-2.157 1.229zm10.959-.068c-.492-.806-1.201-1.16-2.13-1.16-1.773 0-2.974 1.473-2.974 3.561 0 1.993 1.078 3.316 2.893 3.316.955 0 1.692-.436 2.21-1.16h.028l.04 1.024h1.106v-9.826h-1.146v4.244zm.027 2.674c0 1.147-.71 2.17-1.883 2.17-1.324 0-2.047-1.037-2.047-2.552 0-1.556.696-2.58 2.02-2.58 1.05 0 1.91.902 1.91 2.17zm5.609-3.834c-.67 0-1.338.109-2.047.382l.109.873c.668-.26 1.214-.382 1.774-.382 1.01 0 1.433.587 1.433 1.515v.19a5.933 5.933 0 0 0-1.092-.081c-1.679 0-2.948.832-2.948 2.279 0 1.35.997 2.101 2.061 2.101.873 0 1.597-.45 1.952-1.16h.027l.04 1.024h1.106v-4.476c0-1.488-.887-2.266-2.415-2.266zm1.269 3.902c0 1.31-.669 2.102-1.638 2.102-.696 0-1.173-.505-1.173-1.31 0-.873.56-1.447 1.896-1.447.342 0 .642.041.915.082zm6.25-3.766h-1.583v-1.46h-1.146v1.46h-1.051v.873h1.05v4.108c0 1.2.656 1.76 1.72 1.76.56 0 .928-.054 1.215-.177l-.123-.832a1.911 1.911 0 0 1-.737.136c-.669 0-.928-.382-.928-1.174V33.2h1.583zm1.665 6.605h1.146v-6.605h-1.146zm.573-7.833c.396 0 .71-.314.71-.71a.705.705 0 0 0-.71-.71.705.705 0 0 0-.71.71c0 .396.314.71.71.71zm5.35 1.092c-1.993 0-3.18 1.5-3.18 3.438 0 1.938 1.187 3.44 3.18 3.44 1.992 0 3.18-1.502 3.18-3.44 0-1.937-1.188-3.439-3.18-3.439zm0 6.004c-1.379 0-1.98-1.187-1.98-2.566 0-1.378.601-2.565 1.98-2.565 1.378 0 1.978 1.187 1.978 2.565 0 1.379-.6 2.566-1.978 2.566zm5.922-4.776-.04-1.092h-1.106v6.605h1.146v-3.63c0-1.365.833-2.184 1.856-2.184 1.065 0 1.324.6 1.324 1.87v3.944h1.146v-4.299c0-1.61-.736-2.443-2.142-2.443-.983 0-1.692.546-2.156 1.229z" aria-label="The Document Foundation" style="font-size:13.6468px;line-height:1.25" transform="scale(.98078 1.0196)"/></g><g style="display:inline;stroke-width:2.05404"><path d="M746.519 1098.726c-.755-.02-1.499.452-1.794 1.138a1.898 1.898 0 0 0 .416 2.063l16.196 16.247a1.962 1.962 0 0 0 2.063.42c.69-.275 1.177-.984 1.182-1.718v-16.278c.002-.98-.903-1.874-1.898-1.872z" style="color:#000;font-style:normal;font-variant:normal;font-weight:400;font-stretch:normal;font-size:medium;line-height:normal;font-family:&quot;Andale Mono&quot;;-inkscape-font-specification:&quot;Andale Mono&quot;;text-indent:0;text-align:start;text-decoration:none;text-decoration-line:none;letter-spacing:normal;word-spacing:normal;text-transform:none;writing-mode:lr-tb;direction:ltr;text-anchor:start;display:inline;overflow:visible;visibility:visible;fill:#000;fill-opacity:1;fill-rule:evenodd;stroke:none;stroke-width:7.9455;marker:none;enable-background:accumulate" transform="translate(-340.163 -533.058) scale(.48685)"/><path d="M701.984 1098.725c-.996.014-1.892.925-1.89 1.921v74.157c-.002.996.894 1.907 1.89 1.921h60.677c1.006 0 1.923-.914 1.921-1.92v-47.755a1.941 1.941 0 0 0-.557-1.364l-26.248-26.371a1.942 1.942 0 0 0-1.364-.589z" style="color:#000;font-style:normal;font-variant:normal;font-weight:400;font-stretch:normal;font-size:medium;line-height:normal;font-family:&quot;Andale Mono&quot;;-inkscape-font-specification:&quot;Andale Mono&quot;;text-indent:0;text-align:start;text-decoration:none;text-decoration-line:none;letter-spacing:normal;word-spacing:normal;text-transform:none;writing-mode:lr-tb;direction:ltr;text-anchor:start;display:inline;overflow:visible;visibility:visible;fill:#fff;fill-opacity:1;fill-rule:evenodd;stroke:none;stroke-width:7.9455;marker:none;enable-background:accumulate" transform="translate(-340.163 -533.058) scale(.48685)"/><path d="M701.984 1098.725a1.918 1.918 0 0 0-1.89 1.921v74.157a1.918 1.918 0 0 0 1.89 1.921h60.677a1.918 1.918 0 0 0 1.921-1.92v-47.755a1.918 1.918 0 0 0-.557-1.364l-26.248-26.371a1.918 1.918 0 0 0-1.364-.589zm1.922 3.843h31.702l25.132 25.256v45.058h-56.834z" style="color:#000;font-style:normal;font-variant:normal;font-weight:400;font-stretch:normal;font-size:medium;line-height:normal;font-family:&quot;Andale Mono&quot;;-inkscape-font-specification:&quot;Andale Mono&quot;;text-indent:0;text-align:start;text-decoration:none;text-decoration-line:none;letter-spacing:normal;word-spacing:normal;text-transform:none;writing-mode:lr-tb;direction:ltr;text-anchor:start;display:inline;overflow:visible;visibility:visible;fill:#000;fill-opacity:1;fill-rule:evenodd;stroke:none;stroke-width:7.9455;marker:none;enable-background:accumulate" transform="translate(-340.163 -533.058) scale(.48685)"/></g></svg>