<svg xmlns="http://www.w3.org/2000/svg" width="102" height="40" fill="none"><path fill="#fff" d="M74.304 13.347v9.691l.066 2.068H73.07l-.066-1.391h-.033c-.447.895-1.413 1.578-2.708 1.578-1.92 0-3.404-1.645-3.404-4.077-.014-2.665 1.63-4.309 3.562-4.309 1.216 0 2.037.583 2.399 1.226h.033v-4.786zm-1.446 7.007c0-.186-.013-.43-.066-.61-.21-.928-.999-1.69-2.09-1.69-1.498 0-2.379 1.325-2.379 3.102 0 1.624.79 2.97 2.353 2.97.973 0 1.854-.65 2.116-1.737.053-.199.066-.398.066-.63zM48.44 24.086c-.986 0-1.92-.332-2.563-.73l-.375 1.193c.592.398 1.762.717 2.826.717 2.616 0 3.878-1.492 3.878-3.215 0-1.638-.953-2.553-2.826-3.282-1.531-.597-2.202-1.107-2.202-2.154 0-.755.579-1.67 2.09-1.67a4.364 4.364 0 0 1 2.104.53l.394-1.18c-.493-.279-1.314-.544-2.445-.544-2.15 0-3.582 1.3-3.582 3.036 0 1.578 1.117 2.52 2.924 3.169 1.5.576 2.09 1.173 2.09 2.22 0 1.128-.854 1.91-2.313 1.91zm-24.91-7.842c0 1.644.045 3.248.098 4.594l.19 4.282h2.433l-.592-11.17h-3.287l-1.17 3.713a59.862 59.862 0 0 0-1.051 4.01h-.066a46.93 46.93 0 0 0-.933-3.997l-1.085-3.726h-3.339l-.71 11.17h2.314l.21-4.242.184-4.628h.033a55.498 55.498 0 0 0 .999 4.363l1.183 4.322H20.9l1.348-4.362a71.967 71.967 0 0 0 1.248-4.33zm11.37 8.87c-.099-.445-.131-1.194-.131-1.956h.006v-2.83c0-1.91-.834-3.5-3.516-3.5-1.466 0-2.563.41-3.122.729l.46 1.604c.526-.318 1.4-.597 2.221-.597 1.23 0 1.46.617 1.46 1.047v.1c-2.846 0-4.72.994-4.72 3.102 0 1.292.966 2.486 2.596 2.486.953 0 1.776-.345 2.301-.994h.053l.144.809zm-4.877-2.56c0-.954 1.019-1.272 2.333-1.272h.007v.875c0 .152-.02.298-.052.43a1.392 1.392 0 0 1-1.302.928c-.559 0-.986-.31-.986-.96zm12.765 2.34c-.447.213-1.282.385-2.235.385-2.596 0-4.26-1.604-4.26-4.143 0-2.353 1.611-4.296 4.602-4.296.657 0 1.38.12 1.905.319l-.393 1.87c-.296-.134-.737-.253-1.394-.253-1.315 0-2.169.948-2.156 2.254 0 1.491.986 2.267 2.202 2.267.592 0 1.052-.1 1.433-.265zm13.033-9.717v1.909h2.071v1.113h-2.07v4.322c0 .995.276 1.559 1.084 1.559.381 0 .658-.054.842-.1l.065 1.094c-.276.12-.723.199-1.281.199-.671 0-1.216-.213-1.565-.61-.407-.431-.559-1.14-.559-2.089V18.2h-1.235v-1.114h1.235v-1.478zm7.98 8.929.118 1.008v-.007h1.315c-.099-.544-.132-1.227-.132-1.923v-2.996c0-1.61-.591-3.281-3.023-3.281-1.006 0-1.959.285-2.616.716l.328.961c.56-.365 1.335-.597 2.07-.597 1.624 0 1.808 1.194 1.808 1.857v.165c-3.076-.013-4.785 1.048-4.785 2.983 0 1.167.822 2.307 2.432 2.307 1.13 0 1.985-.564 2.432-1.193zm-3.457-1.286c0-1.551 1.787-1.836 3.365-1.803v1.392c0 .146-.027.318-.08.464-.222.676-.88 1.339-1.918 1.339-.743 0-1.367-.451-1.367-1.392zm17.05-7.086c.578 0 .933-.398.92-.895 0-.517-.342-.915-.881-.915a.887.887 0 0 0-.907.915c0 .497.355.894.867.894zm-.69 1.358v8.022h1.445v-8.022zm10.503 5.834c0 .829.013 1.558.065 2.188h-1.281l-.08-1.313h-.032c-.381.65-1.216 1.492-2.63 1.492-1.248 0-2.746-.696-2.746-3.514v-4.693h1.446v4.441c0 1.525.46 2.552 1.774 2.552.973 0 1.643-.676 1.906-1.325a2.19 2.19 0 0 0 .132-.743v-4.919h1.446zm2.333-5.84c.053.663.066 1.346.066 2.174v5.854h1.413v-4.84c0-.252.04-.504.118-.716.224-.73.881-1.458 1.788-1.458 1.098 0 1.656.928 1.656 2.2v4.806h1.414v-4.958a2.408 2.408 0 0 1 .118-.73c.25-.715.887-1.325 1.709-1.325 1.164 0 1.722.928 1.722 2.466v4.54h1.42V20.38c0-2.784-1.564-3.48-2.616-3.48-.762 0-1.289.199-1.762.564a3.357 3.357 0 0 0-.887 1.047h-.033c-.342-.941-1.163-1.604-2.248-1.604-1.314 0-2.05.71-2.497 1.471h-.053l-.066-1.292z" style="fill:#fff;stroke-width:1"/><path fill="#fe9000" d="M20.998.46h-1.906v9.613h1.906zm.066 29.486h-1.906v9.612h1.906zm-4.947-.795 1.81.607-3.01 9.12-1.81-.607 3.01-9.12zM15 28.584l-1.542-1.13-5.6 7.778 1.543 1.13 5.598-7.778zm-3.475-3.56 1.11 1.564-7.752 5.592-1.109-1.563 7.751-5.592zm-.537-1.103-.59-1.827-9.063 2.978.59 1.827zm-.767-4.913v1.922H.689v-1.922Zm.144-1.155.588-1.829-9.066-2.964-.588 1.828Zm2.237-4.477-1.127 1.55-7.686-5.684 1.127-1.55ZM14.939 1.11l-1.812.598 2.966 9.134 1.811-.598zM7.886 4.706 9.422 3.57l5.642 7.747-1.537 1.137Z" style="stroke-width:1;fill:#fff"/></svg>