<svg xmlns="http://www.w3.org/2000/svg" width="108" height="40"><g style="fill:#fff"><path d="M10.664 132.894q-2.49 0-3.863 1.84-1.373 1.84-1.373 5.18 0 3.325 1.373 5.165 1.373 1.84 3.863 1.84 2.505 0 3.878-1.84 1.373-1.84 1.373-5.166 0-3.34-1.373-5.18-1.373-1.84-3.878-1.84zm0-3.949q5.095 0 7.982 2.916 2.888 2.915 2.888 8.052 0 5.124-2.888 8.039-2.887 2.915-7.982 2.915-5.08 0-7.982-2.915-2.887-2.915-2.887-8.039 0-5.137 2.887-8.052 2.902-2.916 7.982-2.916zm14.988.382h9.043q4.034 0 6.185 1.798 2.165 1.783 2.165 5.095 0 3.325-2.165 5.123-2.151 1.783-6.185 1.783h-3.594v7.331h-5.449zm5.449 3.949v5.901h3.014q1.585 0 2.449-.764.863-.778.863-2.193 0-1.416-.863-2.18-.864-.764-2.449-.764zm15.794-3.949h14.704v4.119h-9.255v3.934h8.703v4.118h-8.703v4.84h9.567v4.119H46.895Zm19.8 0h6.085l7.685 14.492v-14.492h5.165v21.13h-6.085l-7.685-14.492v14.492h-5.166zm49.052.665v4.473q-1.741-.779-3.397-1.175-1.656-.396-3.128-.396-1.953 0-2.887.538-.934.537-.934 1.67 0 .849.623 1.33.637.467 2.293.807l2.32.467q3.525.707 5.01 2.15 1.487 1.444 1.487 4.105 0 3.496-2.08 5.208-2.067 1.698-6.327 1.698-2.01 0-4.033-.382-2.024-.382-4.048-1.132v-4.6q2.024 1.076 3.906 1.628 1.897.538 3.651.538 1.784 0 2.732-.595.948-.594.948-1.698 0-.99-.65-1.528-.638-.538-2.563-.963l-2.108-.467q-3.17-.679-4.642-2.165-1.458-1.486-1.458-4.005 0-3.156 2.038-4.854 2.038-1.699 5.86-1.699 1.74 0 3.58.27 1.84.254 3.807.777zm15.822 2.902q-2.49 0-3.863 1.84-1.373 1.84-1.373 5.18 0 3.325 1.373 5.165 1.372 1.84 3.863 1.84 2.505 0 3.878-1.84 1.373-1.84 1.373-5.166 0-3.34-1.373-5.18-1.373-1.84-3.878-1.84zm0-3.949q5.095 0 7.982 2.916 2.887 2.915 2.887 8.052 0 5.124-2.887 8.039t-7.982 2.915q-5.08 0-7.982-2.915-2.887-2.915-2.887-8.039 0-5.137 2.887-8.052 2.901-2.916 7.982-2.916zm14.988.382h5.448v12.667q0 2.618.85 3.75.863 1.118 2.802 1.118 1.953 0 2.802-1.118.863-1.132.863-3.75v-12.667h5.449v12.667q0 4.486-2.25 6.68-2.25 2.193-6.864 2.193-4.6 0-6.85-2.193-2.25-2.194-2.25-6.68zm31.277 9.37q1.712 0 2.448-.638.75-.636.75-2.094 0-1.444-.75-2.066-.736-.623-2.448-.623h-2.293v5.42zm-2.293 3.764v7.996h-5.449v-21.13h8.322q4.175 0 6.114 1.401 1.953 1.402 1.953 4.43 0 2.095-1.02 3.44-1.004 1.344-3.042 1.98 1.118.255 1.996 1.161.891.892 1.797 2.717l2.958 6.001h-5.803l-2.575-5.25q-.779-1.586-1.585-2.166-.793-.58-2.123-.58zm33.626 6.835q-1.5.779-3.127 1.175-1.628.396-3.397.396-5.279 0-8.364-2.943-3.085-2.958-3.085-8.01 0-5.067 3.085-8.01 3.085-2.959 8.364-2.959 1.77 0 3.397.396 1.627.397 3.127 1.175v4.373q-1.514-1.033-2.986-1.514-1.472-.481-3.1-.481-2.915 0-4.585 1.868t-1.67 5.151q0 3.27 1.67 5.138 1.67 1.868 4.586 1.868 1.627 0 3.1-.481 1.471-.482 2.985-1.515zm4.515-19.969h14.704v4.119h-9.255v3.934h8.703v4.118h-8.703v4.84h9.567v4.119h-15.016zm29.89 0h5.449v17.012h9.567v4.118h-15.016zm31.291 17.28h-8.52l-1.344 3.85h-5.477l7.826-21.13h6.496l7.827 21.13h-5.477zm-7.161-3.92h5.788l-2.887-8.406zm25.234-5.18q1.288 0 1.953-.566t.665-1.67q0-1.09-.665-1.655-.665-.58-1.953-.58h-3.015v4.471zm.184 9.242q1.642 0 2.462-.693.835-.694.835-2.095 0-1.373-.82-2.052-.821-.694-2.477-.694h-3.199v5.534zm5.066-7.6q1.755.51 2.718 1.882.962 1.373.962 3.369 0 3.057-2.066 4.557-2.066 1.5-6.284 1.5h-9.043v-21.13h8.18q4.401 0 6.368 1.33 1.982 1.331 1.982 4.26 0 1.543-.722 2.633-.722 1.075-2.095 1.6z" aria-label="OPEN SOURCE LAB" style="font-weight:700;font-size:28.9843px;line-height:1.25;font-family:&quot;DejaVu Sans&quot;;-inkscape-font-specification:&quot;DejaVu Sans, Bold&quot;;letter-spacing:0;word-spacing:0;stroke-width:.679317;stroke-linecap:round;stroke-linejoin:round;stroke-miterlimit:10;paint-order:stroke fill markers;fill:#fff" transform="matrix(.35668 0 0 .29685 .073 -4.663)"/><path d="M23.35 15.797C10.768 15.797.357 26.207.357 38.789v46.318c0 12.582 10.41 22.993 22.993 22.993h59.004c12.581 0 22.992-10.41 22.992-22.993V38.79c0-12.582-10.41-22.992-22.992-22.992zm0 18h59.004c2.92 0 4.992 2.07 4.992 4.992v46.318c0 2.922-2.071 4.993-4.992 4.993H23.35c-2.922 0-4.993-2.071-4.993-4.993V38.79c0-2.921 2.071-4.992 4.993-4.992z" style="color:#000;fill:#fff;stroke-linecap:square;stroke-linejoin:round;stroke-miterlimit:10;-inkscape-stroke:none;paint-order:stroke fill markers" transform="matrix(.3254 0 0 .3254 .073 -4.663)"/><path d="M144.455 15.355c-15.69 0-28.605 12.913-28.605 28.604v.025c.043 15.661 12.968 28.513 28.629 28.47h47.937c5.652 0 10.032 4.375 10.072 10.015-.132 5.467-4.444 9.631-9.924 9.54l-.148-.001H115.85v18h76.418c15.233.251 27.98-12.085 28.232-27.319l.002-.148c0-15.405-12.68-28.088-28.086-28.088H144.43c-5.929.017-10.555-4.58-10.578-10.508.008-5.956 4.645-10.59 10.603-10.59h76.047v-18h-9zM238.137 15.355v65.89c0 15.778 12.984 28.763 28.763 28.763h61.819v-18H266.9c-6.051 0-10.763-4.712-10.763-10.764V15.355z" style="color:#000;fill:#fff;stroke-linecap:square;stroke-linejoin:bevel;stroke-miterlimit:10;-inkscape-stroke:none;paint-order:stroke fill markers" transform="matrix(.3254 0 0 .3254 .073 -4.663)"/></g></svg>