<svg xmlns="http://www.w3.org/2000/svg" width="170" height="40"><path d="M35.329 23.265c3.431 0 8.396-.708 8.396-4.79a3.84 3.84 0 0 0-.085-.938l-2.044-8.876c-.471-1.953-.886-2.84-4.314-4.554C34.62 2.747 28.825.5 27.11.5c-1.596 0-2.06 2.057-3.963 2.057-1.833 0-3.193-1.536-4.908-1.536-1.645 0-2.718 1.122-3.546 3.429 0 0-2.307 6.507-2.604 7.45a1.764 1.764 0 0 0-.06.532c0 2.53 9.957 10.822 23.3 10.822m8.923-3.122c.474 2.247.474 2.483.474 2.779 0 3.84-4.317 5.971-9.993 5.971-12.826.009-24.062-7.507-24.062-12.475a5.06 5.06 0 0 1 .414-2.01C6.472 14.626.5 15.45.5 20.721.5 29.357 20.96 40 37.16 40c12.421 0 15.554-5.618 15.554-10.053 0-3.49-3.017-7.45-8.457-9.815" style="fill:#fff;stroke-width:1"/><path d="M159.389 25.818c0 3.262 1.961 4.847 5.538 4.847a14.294 14.294 0 0 0 3.261-.46v-3.783a6.814 6.814 0 0 1-2.106.318c-1.473 0-2.02-.46-2.02-1.846v-5.796h4.27v-3.895h-4.27v-4.938l-4.662 1.01v3.928h-3.097v3.895h3.086zm-14.538.088c0-1.01 1.012-1.5 2.54-1.5a11.83 11.83 0 0 1 2.77.345v1.962a5.9 5.9 0 0 1-2.916.721c-1.497 0-2.394-.576-2.394-1.528m1.426 4.817c1.646 0 2.973-.346 4.213-1.182v.924h4.614v-9.782c0-3.72-2.507-5.76-6.69-5.76-2.337 0-4.647.549-7.132 1.673l1.673 3.435c1.789-.752 3.292-1.213 4.617-1.213 1.92 0 2.913.749 2.913 2.28v.748a13.586 13.586 0 0 0-3.462-.433c-3.925 0-6.29 1.646-6.29 4.59 0 2.682 2.134 4.728 5.538 4.728m-25.356-.258h4.962V22.56h8.309v7.905h4.975V10.271h-4.956v7.76h-8.309v-7.76h-4.962zm-18.889-7.653c0-2.194 1.73-3.867 4.01-3.867a4.724 4.724 0 0 1 3.226 1.185v5.335a4.488 4.488 0 0 1-3.226 1.223c-2.249 0-4.01-1.673-4.01-3.865m7.3 7.645h4.616V9.261l-4.663 1.01v5.741a7.763 7.763 0 0 0-3.896-1.01c-4.44 0-7.932 3.432-7.932 7.818a7.75 7.75 0 0 0 7.79 7.845 6.89 6.89 0 0 0 4.095-1.325zM88.14 18.741c1.47 0 2.71.952 3.2 2.422h-6.363c.46-1.516 1.616-2.422 3.163-2.422m-7.865 4.115c0 4.444 3.635 7.905 8.306 7.905 2.568 0 4.444-.694 6.378-2.31L91.87 25.71c-.721.751-1.788 1.155-3.056 1.155a3.947 3.947 0 0 1-3.752-2.423h10.876v-1.16c0-4.847-3.259-8.336-7.702-8.336a7.837 7.837 0 0 0-7.955 7.903m-8.051-8.336c1.646 0 2.567 1.036 2.567 2.279 0 1.243-.921 2.28-2.567 2.28h-4.907v-4.56zm-9.875 15.953h4.962v-7.357h3.777l3.81 7.357h5.555l-4.444-8.078a6.109 6.109 0 0 0 3.808-5.684c0-3.634-2.856-6.432-7.132-6.432H62.356Z" style="stroke-width:1;fill:#fff"/></svg>