<svg xmlns="http://www.w3.org/2000/svg" width="120" height="40"><path fill="#006e00" d="M7.764 26.929c-2.785 0-5.322-1.386-5.322-2.908 0-.796.58-1.42 1.321-1.42.51 0 .937.3 1.39.615.653.455 1.393.971 2.684.971 1.295 0 2.07-.667 2.07-1.313 0-.86-1.33-1.413-2.736-1.997-1.965-.818-4.193-1.744-4.193-4.004 0-2.664 2.503-4.102 4.859-4.102 1.988 0 4.762 1.041 4.762 2.737 0 .636-.445 1.321-1.42 1.321-.52 0-.896-.283-1.259-.557-.472-.356-1.007-.761-2.083-.761-.305 0-1.825.057-1.825 1.19 0 .688 1.23 1.163 2.53 1.666 1.959.756 4.397 1.698 4.397 4.116 0 3.054-2.683 4.444-5.176 4.444"/><path fill="#78e600" d="M7.837 13.215c1.782 0 4.317.95 4.317 2.293 0 .463-.317.878-.976.878-.927 0-1.293-1.317-3.342-1.317-1.22 0-2.268.536-2.268 1.634 0 2.268 6.928 2.023 6.928 5.781 0 2.708-2.317 4.001-4.732 4.001-2.733 0-4.879-1.366-4.879-2.464 0-.585.415-.976.878-.976.951 0 1.732 1.586 4.075 1.586 1.561 0 2.512-.878 2.512-1.757 0-2.537-6.927-2.39-6.927-6 0-2.39 2.244-3.66 4.415-3.66m0-.886c-2.57 0-5.302 1.593-5.302 4.546 0 2.556 2.476 3.585 4.466 4.413 1.154.48 2.461 1.023 2.461 1.588 0 .355-.578.87-1.625.87-1.151 0-1.802-.455-2.43-.893-.49-.341-.995-.693-1.644-.693-.99 0-1.764.818-1.764 1.862 0 1.786 2.694 3.352 5.766 3.352 2.706 0 5.62-1.53 5.62-4.888 0-2.722-2.706-3.767-4.68-4.53-.842-.325-2.249-.868-2.249-1.252 0-.71 1.151-.747 1.382-.747.928 0 1.359.326 1.815.67.402.304.857.647 1.528.647 1.08 0 1.863-.742 1.863-1.764 0-2.048-3.078-3.18-5.205-3.18z"/><path fill="#006e00" d="M21.524 26.929c-2.703 0-5.592-1.476-5.592-5.615V14.36c0-.95.609-1.59 1.517-1.59.907 0 1.517.64 1.517 1.59v6.88c0 2.01.812 2.946 2.557 2.946 1.744 0 2.556-.936 2.556-2.947v-6.88c0-.95.61-1.59 1.517-1.59.908 0 1.518.64 1.518 1.59v6.953c0 4.14-2.888 5.616-5.59 5.616"/><path fill="#78e600" d="M25.596 13.215c.658 0 1.073.439 1.073 1.146v6.952c0 3.806-2.537 5.172-5.147 5.172-2.61 0-5.147-1.366-5.147-5.172v-6.952c0-.707.415-1.146 1.073-1.146.659 0 1.074.439 1.074 1.146v6.88c0 2.22.975 3.39 3 3.39s3-1.171 3-3.39v-6.88c0-.707.415-1.146 1.074-1.146m0-.888c-1.154 0-1.96.837-1.96 2.034v6.88c0 2.206-1.069 2.503-2.114 2.503s-2.114-.297-2.114-2.503v-6.88c0-1.197-.806-2.034-1.96-2.034s-1.96.837-1.96 2.034v6.953c0 4.467 3.117 6.058 6.034 6.058s6.034-1.592 6.034-6.058V14.36c0-1.197-.806-2.034-1.96-2.034z"/><path fill="#006e00" d="M36.11 32.052c-2.14 0-5.42-1.259-5.42-2.81 0-.695.42-1.443 1.345-1.443.51 0 .95.27 1.458.583.707.436 1.508.929 2.787.929 2.729 0 3.079-2.376 3.093-3.482-.765.71-1.774 1.101-2.897 1.101-4.04 0-6.153-3.56-6.153-7.079 0-3.518 2.114-7.078 6.153-7.078 1.115 0 2.19.48 2.945 1.088.165-.665.744-1.088 1.543-1.088.7 0 1.444.523 1.444 1.492v11.149c0 4.032-2.472 6.64-6.298 6.64m.366-16.54c-2.302 0-3.118 2.336-3.118 4.338 0 2 .816 4.337 3.118 4.337 2.3 0 3.117-2.337 3.117-4.337 0-2.001-.816-4.338-3.117-4.338"/><path fill="#78e600" d="M40.963 13.215c.415 0 1 .292 1 1.049v11.148c0 3.854-2.341 6.196-5.854 6.196-2.22 0-4.976-1.267-4.976-2.366 0-.439.22-1 .903-1 .975 0 1.927 1.512 4.244 1.512 2.733 0 3.538-2.147 3.538-4V24.63h-.049c-.658 1.123-1.83 1.855-3.293 1.855-3.66 0-5.708-3.196-5.708-6.636s2.049-6.635 5.708-6.635c1.39 0 2.732.854 3.293 1.634h.05v-.585c0-.756.56-1.049 1.145-1.049m-4.488 11.416c2.634 0 3.56-2.586 3.56-4.781 0-2.196-.926-4.781-3.56-4.781-2.635 0-3.56 2.585-3.56 4.78 0 2.197.926 4.782 3.56 4.782m4.488-12.304c-.764 0-1.382.325-1.728.857-.777-.5-1.754-.857-2.76-.857-4.33 0-6.595 3.786-6.595 7.523 0 3.737 2.266 7.522 6.595 7.522.863 0 1.664-.209 2.357-.6-.213 1.026-.846 2.095-2.552 2.095-1.154 0-1.898-.459-2.554-.863-.543-.334-1.056-.65-1.69-.65-1.038 0-1.79.794-1.79 1.887 0 1.887 3.502 3.253 5.863 3.253 1.986 0 3.675-.666 4.885-1.925 1.215-1.265 1.857-3.05 1.857-5.158V14.265c0-1.258-.973-1.936-1.888-1.936zm-4.488 11.416c-2.545 0-2.675-3.244-2.675-3.894 0-.65.13-3.894 2.675-3.894s2.674 3.244 2.674 3.894c0 .65-.129 3.894-2.674 3.894"/><path fill="#006e00" d="M56.454 26.929c-.662 0-1.33-.436-1.431-1.27-.88.835-1.954 1.27-3.156 1.27-4.04 0-6.151-3.561-6.151-7.08 0-3.517 2.113-7.078 6.151-7.078 1.199 0 2.204.374 3.166 1.195.131-.786.78-1.195 1.42-1.195.7 0 1.444.523 1.444 1.493v11.171c0 .97-.744 1.493-1.443 1.493m-4.586-11.416c-2.302 0-3.118 2.337-3.118 4.337 0 2.001.816 4.338 3.118 4.338 2.301 0 3.118-2.337 3.118-4.338 0-2-.817-4.337-3.118-4.337"/><path fill="#78e600" d="M56.454 13.215c.414 0 1 .292 1 1.049v11.171c0 .756-.586 1.05-1 1.05-.44 0-1-.293-1-1.05v-.902h-.05c-.926 1.317-2.146 1.951-3.537 1.951-3.66 0-5.708-3.196-5.708-6.635 0-3.44 2.048-6.635 5.708-6.635 1.488 0 2.537.634 3.538 1.732h.048v-.683c0-.756.562-1.05 1-1.05M51.869 24.63c2.634 0 3.56-2.585 3.56-4.78 0-2.196-.927-4.782-3.56-4.782-2.635 0-3.561 2.586-3.561 4.781 0 2.196.927 4.781 3.56 4.781m4.587-12.303c-.625 0-1.276.316-1.627.916-.898-.626-1.851-.916-2.96-.916-4.329 0-6.594 3.785-6.594 7.522 0 3.738 2.265 7.523 6.595 7.523a4.87 4.87 0 0 0 2.939-.954c.345.625 1.01.954 1.647.954.915 0 1.887-.679 1.887-1.937V14.263c0-1.258-.972-1.936-1.887-1.936zm-4.586 11.416c-2.546 0-2.675-3.244-2.675-3.894 0-.65.13-3.895 2.675-3.895s2.674 3.244 2.674 3.895c0 .65-.129 3.894-2.674 3.894"/><path fill="#006e00" d="M63.187 26.929c-.907 0-1.517-.64-1.517-1.59V14.36c0-.951.61-1.59 1.517-1.59.83 0 1.41.533 1.504 1.35.639-.717 1.538-1.35 2.545-1.35.95 0 1.639.648 1.639 1.54 0 .587-.296 1.342-1.704 1.607-.746.13-2.468.703-2.468 3.249v6.171c0 .951-.61 1.59-1.517 1.59"/><path fill="#78e600" d="M67.237 13.215c.756 0 1.196.487 1.196 1.097s-.44 1-1.342 1.171c-1.268.22-2.83 1.17-2.83 3.684v6.171c0 .708-.415 1.147-1.073 1.147-.66 0-1.074-.439-1.074-1.147V14.361c0-.707.415-1.146 1.074-1.146.658 0 1.073.439 1.073 1.146v1.098h.049c.488-1 1.683-2.244 2.927-2.244m0-.888c-.886 0-1.69.42-2.34.977-.323-.604-.939-.977-1.709-.977-1.154 0-1.96.837-1.96 2.034V25.34c0 1.197.806 2.033 1.96 2.033s1.96-.836 1.96-2.033v-6.172c0-2.13 1.312-2.674 2.094-2.81a.316.316 0 0 0 .014-.002c1.796-.34 2.064-1.426 2.064-2.042 0-1.15-.876-1.985-2.083-1.985z"/><g fill="#969696"><path d="M73.774 25.338c0 .708-.415 1.147-1.073 1.147-.659 0-1.074-.439-1.074-1.147V8.653c0-.707.415-1.146 1.074-1.146.658 0 1.073.439 1.073 1.146zM89.167 25.434c0 .756-.586 1.05-1 1.05-.44 0-1-.293-1-1.05v-.902h-.05c-.927 1.317-2.146 1.952-3.538 1.952-3.659 0-5.707-3.196-5.707-6.636s2.049-6.635 5.707-6.635c1.489 0 2.538.634 3.539 1.732h.048v-.683c0-.756.561-1.05 1-1.05.415 0 1 .294 1 1.05zm-5.587-.805c2.634 0 3.56-2.585 3.56-4.781 0-2.195-.926-4.781-3.56-4.781-2.635 0-3.561 2.586-3.561 4.781 0 2.196.927 4.781 3.56 4.781M93.924 8.652c0-.707.415-1.146 1.074-1.146s1.074.44 1.074 1.146v6.318h.048a4.24 4.24 0 0 1 3.464-1.756c3.513 0 5.538 3.196 5.538 6.635 0 3.44-2.024 6.636-5.538 6.636-1.708 0-2.854-.61-3.464-1.782h-.048v.635c0 .707-.415 1.147-1.074 1.147s-1.074-.44-1.074-1.147zm5.49 15.978c2.634 0 3.56-2.586 3.56-4.781 0-2.196-.927-4.782-3.56-4.782-2.635 0-3.561 2.586-3.561 4.782 0 2.195.927 4.78 3.56 4.78M113.341 13.215c1.782 0 4.317.95 4.317 2.293 0 .463-.317.878-.976.878-.927 0-1.293-1.317-3.342-1.317-1.22 0-2.268.536-2.268 1.634 0 2.268 6.928 2.023 6.928 5.781 0 2.708-2.317 4.001-4.732 4.001-2.733 0-4.88-1.366-4.88-2.464 0-.585.416-.976.879-.976.951 0 1.732 1.586 4.075 1.586 1.56 0 2.512-.878 2.512-1.757 0-2.537-6.927-2.39-6.927-6 0-2.39 2.243-3.66 4.415-3.66"/></g></svg>