{
	"asset":{
		"generator":"Khronos glTF Blender I/O v4.2.60",
		"version":"2.0"
	},
	"extensionsUsed":[
		"KHR_materials_unlit",
		"EXT_texture_webp",
		"KHR_materials_clearcoat",
		"KHR_materials_specular",
		"KHR_materials_ior",
		"KHR_lights_punctual"
	],
	"extensionsRequired":[
		"EXT_texture_webp",
		"KHR_lights_punctual"
	],
	"extensions":{
		"KHR_lights_punctual":{
			"lights":[
				{
					"color":[
						1,
						0.8140426874160767,
						0.6665579676628113
					],
					"intensity":3.2610847110620105,
					"spot":{
						"innerConeAngle":0.556323685321221,
						"outerConeAngle":0.6544984579086304
					},
					"type":"spot",
					"name":"Lamp.009"
				}
			]
		}
	},
	"scene":0,
	"scenes":[
		{
			"name":"webgl lid",
			"nodes":[
				0,
				3,
				4,
				5
			]
		}
	],
	"nodes":[
		{
			"name":"thin laptop.001",
			"scale":[
				1.3358350992202759,
				1.3358350992202759,
				1.3358350992202759
			],
			"translation":[
				0.00349374208599329,
				-0.0011371171567589045,
				-0.05273544788360596
			]
		},
		{
			"mesh":0,
			"name":"Pantalla.003",
			"scale":[
				1.0619902610778809,
				1.0619901418685913,
				1.0619902610778809
			],
			"translation":[
				0,
				2.652109384536743,
				-0.052073508501052856
			]
		},
		{
			"children":[
				1
			],
			"mesh":1,
			"name":"Tapa.004",
			"rotation":[
				-0.665523886680603,
				0,
				0,
				0.7463765740394592
			]
		},
		{
			"children":[
				2
			],
			"mesh":2,
			"name":"keyboard bit.001",
			"rotation":[
				0.7071068286895752,
				0,
				0,
				0.7071068286895752
			],
			"scale":[
				1.0500918626785278,
				1.0500918626785278,
				1.0500918626785278
			],
			"translation":[
				-0.003080058842897415,
				-0.17860135436058044,
				1.139625072479248
			]
		},
		{
			"camera":0,
			"name":"Camera.003",
			"rotation":[
				-0.5444887280464172,
				0,
				0,
				0.8387683033943176
			],
			"translation":[
				0.02639162912964821,
				17.625944137573242,
				6.4185791015625
			]
		},
		{
			"extensions":{
				"KHR_lights_punctual":{
					"light":0
				}
			},
			"name":"Lamp.009",
			"rotation":[
				-0.37450429797172546,
				0.5483115911483765,
				0.509355902671814,
				0.5474100112915039
			],
			"scale":[
				8.36943244934082,
				8.36943244934082,
				8.369431495666504
			],
			"translation":[
				3.190281867980957,
				8.821249961853027,
				-0.09898539632558823
			]
		}
	],
	"cameras":[
		{
			"name":"Camera.002",
			"perspective":{
				"aspectRatio":2.542372881355932,
				"yfov":0.2813296966842316,
				"zfar":100,
				"znear":0.10000000149011612
			},
			"type":"perspective"
		}
	],
	"animations":[
		{
			"channels":[
				{
					"sampler":0,
					"target":{
						"node":2,
						"path":"translation"
					}
				},
				{
					"sampler":1,
					"target":{
						"node":2,
						"path":"rotation"
					}
				},
				{
					"sampler":2,
					"target":{
						"node":2,
						"path":"scale"
					}
				}
			],
			"name":"Tapa.006Action.001",
			"samplers":[
				{
					"input":13,
					"interpolation":"STEP",
					"output":14
				},
				{
					"input":15,
					"interpolation":"LINEAR",
					"output":16
				},
				{
					"input":13,
					"interpolation":"STEP",
					"output":17
				}
			]
		}
	],
	"materials":[
		{
			"doubleSided":true,
			"extensions":{
				"KHR_materials_unlit":{}
			},
			"name":"download-dark.001",
			"pbrMetallicRoughness":{
				"baseColorTexture":{
					"index":0
				},
				"metallicFactor":0,
				"roughnessFactor":0.9
			}
		},
		{
			"doubleSided":true,
			"extensions":{
				"KHR_materials_specular":{
					"specularColorFactor":[
						0.09156716003716348,
						0.09156716003716348,
						0.09156716003716348
					]
				},
				"KHR_materials_ior":{
					"ior":1.4500000476837158
				}
			},
			"name":"nobeook.002",
			"pbrMetallicRoughness":{
				"baseColorFactor":[
					0.01492235530167818,
					0.01492235530167818,
					0.01492235530167818,
					1
				],
				"metallicFactor":0,
				"roughnessFactor":0.7996413707733154
			}
		},
		{
			"doubleSided":true,
			"extensions":{
				"KHR_materials_clearcoat":{
					"clearcoatRoughnessFactor":1
				},
				"KHR_materials_specular":{
					"specularColorFactor":[
						0.0,
						0.0,
						0.0
					]
				}
			},
			"name":"screen corners.001",
			"pbrMetallicRoughness":{
				"baseColorFactor":[
					0,
					0,
					0,
					1
				],
				"metallicFactor":0,
				"roughnessFactor":0.6975308656692505
			}
		}
	],
	"meshes":[
		{
			"name":"Cube.010",
			"primitives":[
				{
					"attributes":{
						"POSITION":0,
						"NORMAL":1,
						"TEXCOORD_0":2
					},
					"indices":3,
					"material":0
				}
			]
		},
		{
			"name":"Cube.009",
			"primitives":[
				{
					"attributes":{
						"POSITION":4,
						"NORMAL":5
					},
					"indices":6,
					"material":1
				},
				{
					"attributes":{
						"POSITION":7,
						"NORMAL":8
					},
					"indices":9,
					"material":2
				}
			]
		},
		{
			"name":"Cube.011",
			"primitives":[
				{
					"attributes":{
						"POSITION":10,
						"NORMAL":11
					},
					"indices":12,
					"material":1
				}
			]
		}
	],
	"textures":[
		{
			"extensions":{
				"EXT_texture_webp":{
					"source":0
				}
			},
			"sampler":0
		}
	],
	"images":[
		{
			"mimeType":"image/webp",
			"name":"download",
			"uri":"download.webp"
		}
	],
	"accessors":[
		{
			"bufferView":0,
			"componentType":5126,
			"count":4,
			"max":[
				3.7018203735351562,
				1.824669599533081,
				-5.634501576423645e-08
			],
			"min":[
				-3.7018203735351562,
				-2.2696268558502197,
				-0.005841472186148167
			],
			"type":"VEC3"
		},
		{
			"bufferView":1,
			"componentType":5126,
			"count":4,
			"type":"VEC3"
		},
		{
			"bufferView":2,
			"componentType":5126,
			"count":4,
			"type":"VEC2"
		},
		{
			"bufferView":3,
			"componentType":5123,
			"count":6,
			"type":"SCALAR"
		},
		{
			"bufferView":4,
			"componentType":5126,
			"count":1441,
			"max":[
				4.068808555603027,
				4.6940789222717285,
				-0.056474171578884125
			],
			"min":[
				-4.068808555603027,
				-0.014362678863108158,
				-0.212534099817276
			],
			"type":"VEC3"
		},
		{
			"bufferView":5,
			"componentType":5126,
			"count":1441,
			"type":"VEC3"
		},
		{
			"bufferView":6,
			"componentType":5123,
			"count":7440,
			"type":"SCALAR"
		},
		{
			"bufferView":7,
			"componentType":5126,
			"count":345,
			"max":[
				4.057340621948242,
				4.684425354003906,
				-0.056474171578884125
			],
			"min":[
				-4.057340145111084,
				-0.005571555811911821,
				-0.06072329729795456
			],
			"type":"VEC3"
		},
		{
			"bufferView":8,
			"componentType":5126,
			"count":345,
			"type":"VEC3"
		},
		{
			"bufferView":9,
			"componentType":5123,
			"count":1824,
			"type":"SCALAR"
		},
		{
			"bufferView":10,
			"componentType":5126,
			"count":425,
			"max":[
				4.070442199707031,
				3.9826300144195557,
				-0.043283820152282715
			],
			"min":[
				-4.070442199707031,
				-0.014474630355834961,
				-0.17330627143383026
			],
			"type":"VEC3"
		},
		{
			"bufferView":11,
			"componentType":5126,
			"count":425,
			"type":"VEC3"
		},
		{
			"bufferView":12,
			"componentType":5123,
			"count":1848,
			"type":"SCALAR"
		},
		{
			"bufferView":13,
			"componentType":5126,
			"count":2,
			"max":[
				0.8
			],
			"min":[
				0.04
			],
			"type":"SCALAR"
		},
		{
			"bufferView":14,
			"componentType":5126,
			"count":2,
			"type":"VEC3"
		},
		{
			"bufferView":15,
			"componentType":5126,
			"count":20,
			"max":[
				0.8
			],
			"min":[
				0.04
			],
			"type":"SCALAR"
		},
		{
			"bufferView":16,
			"componentType":5126,
			"count":20,
			"type":"VEC4"
		},
		{
			"bufferView":17,
			"componentType":5126,
			"count":2,
			"type":"VEC3"
		}
	],
	"bufferViews":[
		{
			"buffer":0,
			"byteLength":48,
			"byteOffset":0,
			"target":34962
		},
		{
			"buffer":0,
			"byteLength":48,
			"byteOffset":48,
			"target":34962
		},
		{
			"buffer":0,
			"byteLength":32,
			"byteOffset":96,
			"target":34962
		},
		{
			"buffer":0,
			"byteLength":12,
			"byteOffset":128,
			"target":34963
		},
		{
			"buffer":0,
			"byteLength":17292,
			"byteOffset":140,
			"target":34962
		},
		{
			"buffer":0,
			"byteLength":17292,
			"byteOffset":17432,
			"target":34962
		},
		{
			"buffer":0,
			"byteLength":14880,
			"byteOffset":34724,
			"target":34963
		},
		{
			"buffer":0,
			"byteLength":4140,
			"byteOffset":49604,
			"target":34962
		},
		{
			"buffer":0,
			"byteLength":4140,
			"byteOffset":53744,
			"target":34962
		},
		{
			"buffer":0,
			"byteLength":3648,
			"byteOffset":57884,
			"target":34963
		},
		{
			"buffer":0,
			"byteLength":5100,
			"byteOffset":61532,
			"target":34962
		},
		{
			"buffer":0,
			"byteLength":5100,
			"byteOffset":66632,
			"target":34962
		},
		{
			"buffer":0,
			"byteLength":3696,
			"byteOffset":71732,
			"target":34963
		},
		{
			"buffer":0,
			"byteLength":8,
			"byteOffset":75428
		},
		{
			"buffer":0,
			"byteLength":24,
			"byteOffset":75436
		},
		{
			"buffer":0,
			"byteLength":80,
			"byteOffset":75460
		},
		{
			"buffer":0,
			"byteLength":320,
			"byteOffset":75540
		},
		{
			"buffer":0,
			"byteLength":24,
			"byteOffset":75860
		}
	],
	"samplers":[
		{
			"magFilter":9729,
			"minFilter":9987
		}
	],
	"buffers":[
		{
			"byteLength":75884,
			"uri":"3dlid.bin"
		}
	]
}
