<?xml version="1.0" encoding="UTF-8" standalone="no"?>
<!-- Created with Inkscape (http://www.inkscape.org/) -->

<svg
   width="180"
   height="180"
   viewBox="0 0 47.624999 47.625"
   version="1.1"
   id="svg1"
   inkscape:version="1.4 (e7c3feb100, 2024-10-09)"
   sodipodi:docname="apple-touch-icon.svg"
   inkscape:export-filename="apple-touch-icon.png"
   inkscape:export-xdpi="96"
   inkscape:export-ydpi="96"
   xml:space="preserve"
   xmlns:inkscape="http://www.inkscape.org/namespaces/inkscape"
   xmlns:sodipodi="http://sodipodi.sourceforge.net/DTD/sodipodi-0.dtd"
   xmlns="http://www.w3.org/2000/svg"
   xmlns:svg="http://www.w3.org/2000/svg"><sodipodi:namedview
     id="namedview1"
     pagecolor="#ffffff"
     bordercolor="#000000"
     borderopacity="0.25"
     inkscape:showpageshadow="2"
     inkscape:pageopacity="0.0"
     inkscape:pagecheckerboard="0"
     inkscape:deskcolor="#d1d1d1"
     inkscape:document-units="px"
     inkscape:zoom="1.0333895"
     inkscape:cx="-12.096117"
     inkscape:cy="203.21476"
     inkscape:window-width="2192"
     inkscape:window-height="1269"
     inkscape:window-x="26"
     inkscape:window-y="23"
     inkscape:window-maximized="0"
     inkscape:current-layer="layer1" /><defs
     id="defs1"><inkscape:path-effect
       effect="fillet_chamfer"
       id="path-effect31"
       is_visible="true"
       lpeversion="1"
       nodesatellites_param="F,0,0,1,0,1.8892269,0,1 @ F,0,1,1,0,0.87621357,0,1 @ F,0,0,1,0,1.8892269,0,1"
       radius="0"
       unit="px"
       method="auto"
       mode="F"
       chamfer_steps="1"
       flexible="false"
       use_knot_distance="true"
       apply_no_radius="true"
       apply_with_radius="true"
       only_selected="false"
       hide_knots="false" /><inkscape:path-effect
       effect="fillet_chamfer"
       id="path-effect30"
       is_visible="true"
       lpeversion="1"
       nodesatellites_param="F,0,1,1,0,1.8670399,0,1 @ F,0,0,1,0,0.72662307,0,1 @ F,0,1,1,0,1.8670399,0,1"
       radius="0"
       unit="px"
       method="auto"
       mode="F"
       chamfer_steps="1"
       flexible="false"
       use_knot_distance="true"
       apply_no_radius="true"
       apply_with_radius="true"
       only_selected="false"
       hide_knots="false" /><inkscape:path-effect
       effect="fillet_chamfer"
       id="path-effect32"
       is_visible="true"
       lpeversion="1"
       nodesatellites_param="F,0,0,1,0,2.3661762,0,1 @ F,0,0,1,0,1.218854,0,1 @ F,0,0,1,0,2.3661762,0,1"
       radius="0"
       unit="px"
       method="auto"
       mode="F"
       chamfer_steps="1"
       flexible="false"
       use_knot_distance="true"
       apply_no_radius="true"
       apply_with_radius="true"
       only_selected="false"
       hide_knots="false" /></defs><g
     inkscape:label="Layer 1"
     inkscape:groupmode="layer"
     id="layer1"><rect
       style="fill:#3584e4;stroke-width:0.529167;stroke-linecap:round;stroke-linejoin:round"
       id="rect1"
       width="47.625"
       height="47.625"
       x="0"
       y="0" /><g
       id="g30"
       inkscape:label="library gnome adwaita triangles gnome.org"
       transform="matrix(1.8893259,0,0,1.8893259,-66.875143,-119.73656)"
       style="fill:#ffffff"><title
         id="title10">gnome-org</title><rect
         style="opacity:0.5;fill:#ffffff;fill-opacity:0;stroke:none;stroke-width:0.999999;stroke-dashoffset:26.4"
         id="rect20"
         width="16"
         height="16"
         x="40"
         y="40" /><path
         style="display:inline;fill:#ffffff;fill-opacity:1;stroke:none;stroke-width:1.83334px;stroke-linecap:butt;stroke-linejoin:miter;stroke-opacity:1;enable-background:new"
         d="m 53.110778,41 h -3.234559 a 0.87621357,0.87621357 135 0 0 -0.876214,0.876214 v 3.234559 a 0.7825434,0.7825434 22.5 0 0 1.335885,0.553342 l 3.32823,-3.32823 A 0.7825434,0.7825434 67.5 0 0 53.110778,41 Z"
         id="path27"
         sodipodi:nodetypes="cccc"
         inkscape:path-effect="#path-effect31"
         inkscape:original-d="m 55.000005,41 h -6 v 6 z"
         transform="matrix(1.216315,0,0,1.216315,-10.599438,-9.9274143)" /><path
         style="display:inline;fill:#ffffff;fill-opacity:1;stroke:none;stroke-width:1.37501px;stroke-linecap:butt;stroke-linejoin:miter;stroke-opacity:1;enable-background:new"
         d="m 50.867045,47 h 1.406342 a 0.72662307,0.72662307 45 0 1 0.726623,0.726623 l 0,1.406342 a 0.77335325,0.77335325 157.5 0 1 -1.320197,0.546843 L 50.320202,48.320197 A 0.77335325,0.77335325 112.5 0 1 50.867045,47 Z"
         id="path28"
         sodipodi:nodetypes="cccc"
         inkscape:path-effect="#path-effect30"
         inkscape:original-d="m 49.000005,47 h 4.000005 v 4.000005 z"
         transform="matrix(1.3440745,0,0,1.3440745,-17.235961,-16.171501)" /><g
         id="g29"
         transform="matrix(1.8897637,0,0,1.8897637,-93.999997,-115)"
         style="fill:#ffffff;stroke-width:2" /><path
         style="display:inline;fill:#ffffff;fill-opacity:1;stroke:none;stroke-width:1.83334px;stroke-linecap:butt;stroke-linejoin:miter;stroke-opacity:1;enable-background:new"
         d="m 42.366176,47 h 5.41497 A 1.218854,1.218854 45 0 1 49,48.218854 v 5.41497 a 0.98010227,0.98010227 157.5 0 1 -1.673139,0.693037 L 41.673139,48.673139 A 0.98010227,0.98010227 112.5 0 1 42.366176,47 Z"
         id="path29"
         sodipodi:nodetypes="cccc"
         inkscape:path-effect="#path-effect32"
         inkscape:original-d="m 40,47 h 9 v 9 z"
         transform="matrix(1.1820446,0,0,1.1820446,-8.9201841,-8.5560949)" /></g><g
       style="fill:#ffffff;fill-opacity:1;fill-rule:nonzero;stroke:none;stroke-width:1.84261;stroke-miterlimit:4"
       id="g1"
       transform="matrix(1.020429,0,0,1.020429,11.993803,7.4847944)"><path
         d="M 86.068,0 C 61.466,0 56.851,35.041 70.691,35.041 84.529,35.041 110.671,0 86.068,0 M 45.217,30.699 C 52.586,31.149 60.671,2.577 46.821,4.374 32.976,6.171 37.845,30.249 45.217,30.699 M 11.445,48.453 C 16.686,46.146 12.12,23.581 3.208,29.735 -5.7,35.89 6.204,50.759 11.445,48.453 M 26.212,36.642 C 32.451,35.37 32.793,9.778 21.667,14.369 10.539,18.961 19.978,37.916 26.212,36.642 m 32.579,57.271 c 1.107,8.454 -6.202,12.629 -13.36,7.179 C 22.644,83.743 83.16,75.088 79.171,51.386 75.86,31.712 15.495,37.769 8.621,68.553 3.968,89.374 27.774,118.26 52.614,118.26 c 12.22,0 26.315,-11.034 28.952,-25.012 C 83.58,82.589 57.867,86.86 58.791,93.913"
         style="fill:#ffffff;fill-opacity:1;stroke-width:1.84261"
         transform="matrix(0.22264,0,0,0.22342,0.872,2.79)"
         id="path1" /></g></g></svg>
