<svg xmlns="http://www.w3.org/2000/svg" xml:space="preserve" width="128" height="128"><g style="fill:#000;stroke-width:2.22112;fill-opacity:.36856619" transform="translate(-513.35 -279.246) scale(3.25647)"><circle cx="166.688" cy="95.647" r="9.048" style="fill:#000;stroke-width:.587669;fill-opacity:.36856619"/><rect width="16.412" height="16.412" x="158.414" y="107.798" rx="4.377" ry="4.377" style="fill:#000;stroke-width:.587669;fill-opacity:.36856619"/><path d="M69.514 58.833H57.486a2.444 2.444 60 0 1-2.117-3.666l.89-1.542 5.124-8.875a2.444 2.444 0 0 1 4.234 0l.89 1.542 5.124 8.875a2.444 2.444 120 0 1-2.117 3.666z" style="fill:#000;stroke-width:.553485;fill-opacity:.36856619" transform="scale(1.06914 -1.06914) rotate(-30 -146.513 -226)"/><path d="M194.992 116.11c0 .88-.708 1.587-1.588 1.587h-12.7c-.88 0-1.587-.708-1.587-1.587 0-.88.708-1.588 1.587-1.588h12.7c.88 0 1.588.708 1.588 1.588zm-7.938-7.938c.88 0 1.588.708 1.588 1.588v12.7c0 .88-.708 1.587-1.588 1.587-.88 0-1.587-.708-1.587-1.587v-12.7c0-.88.708-1.588 1.587-1.588z" style="fill:#000;stroke-width:5.87669;fill-opacity:.36856619"/></g></svg>